<svg xmlns="http://www.w3.org/2000/svg" xmlns:xlink="http://www.w3.org/1999/xlink" xmlns:lucid="lucid" width="1902" height="1102"><g transform="translate(-258.3333333124339 -42.33333331243435)" lucid:page-tab-id="0_0"><path d="M0-2000h2500v3500H0z" fill="#f2f3f5"/><path d="M259.33 549.33a6 6 0 0 1 6-6h188a6 6 0 0 1 6 6v188a6 6 0 0 1-6 6h-188a6 6 0 0 1-6-6z" stroke="#000" stroke-width="2" fill="#fff"/><use xlink:href="#a" transform="matrix(1,0,0,1,271.33333333333303,555.3333333333335) translate(53.516493055555564 82.02777777777777)"/><use xlink:href="#b" transform="matrix(1,0,0,1,271.33333333333303,555.3333333333335) translate(30.605251736111114 114.29340277777777)"/><use xlink:href="#c" transform="matrix(1,0,0,1,271.33333333333303,555.3333333333335) translate(81.92903645833334 114.29340277777777)"/><path d="M460.83 643.33h81.12" stroke="#3a414a" fill="none"/><path d="M460.85 643.8h-.52v-.94h.52z" stroke="#3a414a" stroke-width=".05" fill="#3a414a"/><path d="M556.7 643.33l-14.25 4.64v-9.27z" stroke="#3a414a" fill="#3a414a"/><path d="M559.33 549.33a6 6 0 0 1 6-6h188a6 6 0 0 1 6 6v189.53a6 6 0 0 1-6 6h-188a6 6 0 0 1-6-6z" stroke="#000" stroke-width="2" fill="#fff"/><use xlink:href="#d" transform="matrix(1,0,0,1,571.333333333333,555.3333333333335) translate(69.59722222222223 66.02777777777777)"/><use xlink:href="#e" transform="matrix(1,0,0,1,571.333333333333,555.3333333333335) translate(39.410590277777786 98.29340277777777)"/><use xlink:href="#f" transform="matrix(1,0,0,1,571.333333333333,555.3333333333335) translate(57.85677083333334 98.29340277777777)"/><use xlink:href="#g" transform="matrix(1,0,0,1,571.333333333333,555.3333333333335) translate(35.36870659722223 130.55902777777777)"/><path d="M959.33 49.33a6 6 0 0 1 6-6h188a6 6 0 0 1 6 6v188a6 6 0 0 1-6 6h-188a6 6 0 0 1-6-6z" stroke="#000" stroke-width="2" fill="#fff"/><use xlink:href="#h" transform="matrix(1,0,0,1,971.333333333333,55.333333333333485) translate(0.353515625 82.37152777777777)"/><use xlink:href="#i" transform="matrix(1,0,0,1,971.333333333333,55.333333333333485) translate(47.82530381944444 82.37152777777777)"/><use xlink:href="#j" transform="matrix(1,0,0,1,971.333333333333,55.333333333333485) translate(82.11349826388889 82.37152777777777)"/><use xlink:href="#k" transform="matrix(1,0,0,1,971.333333333333,55.333333333333485) translate(18.224609375 114.63715277777777)"/><use xlink:href="#l" transform="matrix(1,0,0,1,971.333333333333,55.333333333333485) translate(42.98589409722222 114.63715277777777)"/><use xlink:href="#c" transform="matrix(1,0,0,1,971.333333333333,55.333333333333485) translate(94.30967881944444 114.63715277777777)"/><path d="M959.33 349.33a6 6 0 0 1 6-6h188a6 6 0 0 1 6 6v188a6 6 0 0 1-6 6h-188a6 6 0 0 1-6-6z" stroke="#000" stroke-width="2" fill="#fff"/><use xlink:href="#h" transform="matrix(1,0,0,1,971.333333333333,355.3333333333335) translate(44.11979166666667 65.77777777777777)"/><use xlink:href="#m" transform="matrix(1,0,0,1,971.333333333333,355.3333333333335) translate(91.59157986111111 65.77777777777777)"/><use xlink:href="#n" transform="matrix(1,0,0,1,971.333333333333,355.3333333333335) translate(3.1909722222222285 98.04340277777777)"/><use xlink:href="#k" transform="matrix(1,0,0,1,971.333333333333,355.3333333333335) translate(102.97395833333333 98.04340277777777)"/><use xlink:href="#o" transform="matrix(1,0,0,1,971.333333333333,355.3333333333335) translate(127.73524305555554 98.04340277777777)"/><use xlink:href="#c" transform="matrix(1,0,0,1,971.333333333333,355.3333333333335) translate(56.26714409722223 130.30902777777777)"/><path d="M959.33 649.33a6 6 0 0 1 6-6h188a6 6 0 0 1 6 6v188a6 6 0 0 1-6 6h-188a6 6 0 0 1-6-6z" stroke="#000" stroke-width="2" fill="#fff"/><use xlink:href="#h" transform="matrix(1,0,0,1,971.333333333333,655.3333333333335) translate(46.59917534722222 65.77777777777777)"/><use xlink:href="#p" transform="matrix(1,0,0,1,971.333333333333,655.3333333333335) translate(94.07096354166666 65.77777777777777)"/><use xlink:href="#n" transform="matrix(1,0,0,1,971.333333333333,655.3333333333335) translate(3.1909722222222285 98.04340277777777)"/><use xlink:href="#k" transform="matrix(1,0,0,1,971.333333333333,655.3333333333335) translate(102.97395833333333 98.04340277777777)"/><use xlink:href="#o" transform="matrix(1,0,0,1,971.333333333333,655.3333333333335) translate(127.73524305555554 98.04340277777777)"/><use xlink:href="#c" transform="matrix(1,0,0,1,971.333333333333,655.3333333333335) translate(56.26714409722223 130.30902777777777)"/><path d="M959.33 949.33a6 6 0 0 1 6-6h188a6 6 0 0 1 6 6v188a6 6 0 0 1-6 6h-188a6 6 0 0 1-6-6z" stroke="#000" stroke-width="2" fill="#fff"/><use xlink:href="#h" transform="matrix(1,0,0,1,971.333333333333,955.3333333333335) translate(47.49435763888889 65.77777777777777)"/><use xlink:href="#q" transform="matrix(1,0,0,1,971.333333333333,955.3333333333335) translate(94.96614583333334 65.77777777777777)"/><use xlink:href="#n" transform="matrix(1,0,0,1,971.333333333333,955.3333333333335) translate(3.1909722222222285 98.04340277777777)"/><use xlink:href="#k" transform="matrix(1,0,0,1,971.333333333333,955.3333333333335) translate(102.97395833333333 98.04340277777777)"/><use xlink:href="#o" transform="matrix(1,0,0,1,971.333333333333,955.3333333333335) translate(127.73524305555554 98.04340277777777)"/><use xlink:href="#c" transform="matrix(1,0,0,1,971.333333333333,955.3333333333335) translate(56.26714409722223 130.30902777777777)"/><path d="M1259.33 49.33a6 6 0 0 1 6-6h188a6 6 0 0 1 6 6v188a6 6 0 0 1-6 6h-188a6 6 0 0 1-6-6z" stroke="#000" stroke-width="2" fill="#fff"/><use xlink:href="#r" transform="matrix(1,0,0,1,1271.333333333333,55.333333333333485) translate(11.253038194444457 65.52777777777777)"/><use xlink:href="#s" transform="matrix(1,0,0,1,1271.333333333333,55.333333333333485) translate(108.41015625 65.52777777777777)"/><use xlink:href="#t" transform="matrix(1,0,0,1,1271.333333333333,55.333333333333485) translate(30.56184895833333 97.79340277777777)"/><use xlink:href="#i" transform="matrix(1,0,0,1,1271.333333333333,55.333333333333485) translate(66.076171875 97.79340277777777)"/><use xlink:href="#o" transform="matrix(1,0,0,1,1271.333333333333,55.333333333333485) translate(100.36436631944444 97.79340277777777)"/><use xlink:href="#c" transform="matrix(1,0,0,1,1271.333333333333,55.333333333333485) translate(56.26714409722223 130.05902777777777)"/><path d="M1259.33 349.33a6 6 0 0 1 6-6h188a6 6 0 0 1 6 6v188a6 6 0 0 1-6 6h-188a6 6 0 0 1-6-6z" stroke="#000" stroke-width="2" fill="#fff"/><use xlink:href="#r" transform="matrix(1,0,0,1,1271.333333333333,355.3333333333335) translate(11.253038194444457 65.52777777777777)"/><use xlink:href="#s" transform="matrix(1,0,0,1,1271.333333333333,355.3333333333335) translate(108.41015625 65.52777777777777)"/><use xlink:href="#t" transform="matrix(1,0,0,1,1271.333333333333,355.3333333333335) translate(24.436631944444443 97.79340277777777)"/><use xlink:href="#u" transform="matrix(1,0,0,1,1271.333333333333,355.3333333333335) translate(59.95095486111111 97.79340277777777)"/><use xlink:href="#o" transform="matrix(1,0,0,1,1271.333333333333,355.3333333333335) translate(106.48958333333333 97.79340277777777)"/><use xlink:href="#c" transform="matrix(1,0,0,1,1271.333333333333,355.3333333333335) translate(56.26714409722223 130.05902777777777)"/><path d="M1259.33 649.33a6 6 0 0 1 6-6h188a6 6 0 0 1 6 6v188a6 6 0 0 1-6 6h-188a6 6 0 0 1-6-6z" stroke="#000" stroke-width="2" fill="#fff"/><use xlink:href="#r" transform="matrix(1,0,0,1,1271.333333333333,655.3333333333335) translate(11.253038194444457 65.77777777777777)"/><use xlink:href="#s" transform="matrix(1,0,0,1,1271.333333333333,655.3333333333335) translate(108.41015625 65.77777777777777)"/><use xlink:href="#t" transform="matrix(1,0,0,1,1271.333333333333,655.3333333333335) translate(26.916015625 98.04340277777777)"/><use xlink:href="#v" transform="matrix(1,0,0,1,1271.333333333333,655.3333333333335) translate(62.430338541666664 98.04340277777777)"/><use xlink:href="#o" transform="matrix(1,0,0,1,1271.333333333333,655.3333333333335) translate(104.01019965277777 98.04340277777777)"/><use xlink:href="#c" transform="matrix(1,0,0,1,1271.333333333333,655.3333333333335) translate(56.26714409722223 130.30902777777777)"/><path d="M1259.33 949.33a6 6 0 0 1 6-6h188a6 6 0 0 1 6 6v188a6 6 0 0 1-6 6h-188a6 6 0 0 1-6-6z" stroke="#000" stroke-width="2" fill="#fff"/><use xlink:href="#r" transform="matrix(1,0,0,1,1271.333333333333,955.3333333333335) translate(11.253038194444457 65.77777777777777)"/><use xlink:href="#s" transform="matrix(1,0,0,1,1271.333333333333,955.3333333333335) translate(108.41015625 65.77777777777777)"/><use xlink:href="#t" transform="matrix(1,0,0,1,1271.333333333333,955.3333333333335) translate(27.81119791666667 98.04340277777777)"/><use xlink:href="#w" transform="matrix(1,0,0,1,1271.333333333333,955.3333333333335) translate(63.325520833333336 98.04340277777777)"/><use xlink:href="#o" transform="matrix(1,0,0,1,1271.333333333333,955.3333333333335) translate(103.1150173611111 98.04340277777777)"/><use xlink:href="#c" transform="matrix(1,0,0,1,1271.333333333333,955.3333333333335) translate(56.26714409722223 130.30902777777777)"/><path d="M1160.83 143.33h81.12" stroke="#3a414a" fill="none"/><path d="M1160.85 143.8h-.52v-.94h.52z" stroke="#3a414a" stroke-width=".05" fill="#3a414a"/><path d="M1256.7 143.33l-14.25 4.64v-9.27z" stroke="#3a414a" fill="#3a414a"/><path d="M1160.83 443.33h81.12" stroke="#3a414a" fill="none"/><path d="M1160.85 443.8h-.52v-.94h.52z" stroke="#3a414a" stroke-width=".05" fill="#3a414a"/><path d="M1256.7 443.33l-14.25 4.64v-9.27z" stroke="#3a414a" fill="#3a414a"/><path d="M1160.83 743.33h81.12" stroke="#3a414a" fill="none"/><path d="M1160.85 743.8h-.52v-.94h.52z" stroke="#3a414a" stroke-width=".05" fill="#3a414a"/><path d="M1256.7 743.33l-14.25 4.64v-9.27z" stroke="#3a414a" fill="#3a414a"/><path d="M1160.83 1043.33h81.12" stroke="#3a414a" fill="none"/><path d="M1160.85 1043.8h-.52v-.94h.52z" stroke="#3a414a" stroke-width=".05" fill="#3a414a"/><path d="M1256.7 1043.33l-14.25 4.64v-9.27z" stroke="#3a414a" fill="#3a414a"/><path d="M1049.33 843.18a6 6 0 0 1 6-6h8a6 6 0 0 1 6 6v89.43a6 6 0 0 1-6 6h-8a6 6 0 0 1-6-6z" fill="none"/><g><use xlink:href="#x" transform="matrix(1,0,0,1,1054.333333333333,842.1757812500002) translate(0 21.818142361111114)"/><use xlink:href="#x" transform="matrix(1,0,0,1,1054.333333333333,842.1757812500002) translate(0 54.083767361111114)"/><use xlink:href="#y" transform="matrix(1,0,0,1,1054.333333333333,842.1757812500002) translate(0 86.34939236111111)"/></g><path d="M760.83 644.1h92.5a6 6 0 0 0 6-6V149.33a6 6 0 0 1 6-6h76.62" stroke="#3a414a" fill="none"/><path d="M760.85 644.57h-.52v-.95h.52z" stroke="#3a414a" stroke-width=".05" fill="#3a414a"/><path d="M956.7 143.33l-14.25 4.64v-9.27z" stroke="#3a414a" fill="#3a414a"/><path d="M760.83 644.1h92.5a6 6 0 0 0 6-6V449.33a6 6 0 0 1 6-6h76.62" stroke="#3a414a" fill="none"/><path d="M760.85 644.57h-.52v-.95h.52z" stroke="#3a414a" stroke-width=".05" fill="#3a414a"/><path d="M956.7 443.33l-14.25 4.64v-9.27z" stroke="#3a414a" fill="#3a414a"/><path d="M760.83 644.1h92.5a6 6 0 0 1 6 6v87.23a6 6 0 0 0 6 6h76.62" stroke="#3a414a" fill="none"/><path d="M760.85 644.57h-.52v-.95h.52z" stroke="#3a414a" stroke-width=".05" fill="#3a414a"/><path d="M956.7 743.33l-14.25 4.64v-9.27z" stroke="#3a414a" fill="#3a414a"/><path d="M760.83 644.1h92.5a6 6 0 0 1 6 6v387.23a6 6 0 0 0 6 6h76.62" stroke="#3a414a" fill="none"/><path d="M760.85 644.57h-.52v-.95h.52z" stroke="#3a414a" stroke-width=".05" fill="#3a414a"/><path d="M956.7 1043.33l-14.25 4.64v-9.27z" stroke="#3a414a" fill="#3a414a"/><path d="M1659.33 549.33a6 6 0 0 1 6-6h188a6 6 0 0 1 6 6v188a6 6 0 0 1-6 6h-188a6 6 0 0 1-6-6z" stroke="#000" stroke-width="2" fill="#fff"/><g><use xlink:href="#z" transform="matrix(1,0,0,1,1671.333333333333,555.3333333333335) translate(19.29340277777777 49.18402777777778)"/><use xlink:href="#A" transform="matrix(1,0,0,1,1671.333333333333,555.3333333333335) translate(123.34071180555556 49.18402777777778)"/><use xlink:href="#B" transform="matrix(1,0,0,1,1671.333333333333,555.3333333333335) translate(21.311631944444457 81.44965277777777)"/><use xlink:href="#t" transform="matrix(1,0,0,1,1671.333333333333,555.3333333333335) translate(85.80815972222223 81.44965277777777)"/><use xlink:href="#A" transform="matrix(1,0,0,1,1671.333333333333,555.3333333333335) translate(121.32248263888889 81.44965277777777)"/><use xlink:href="#C" transform="matrix(1,0,0,1,1671.333333333333,555.3333333333335) translate(31.70659722222223 113.71527777777777)"/><use xlink:href="#D" transform="matrix(1,0,0,1,1671.333333333333,555.3333333333335) translate(53.966796875 145.98090277777777)"/></g><path d="M1460.83 1043.33h92.5a6 6 0 0 0 6-6v-388a6 6 0 0 1 6-6h76.62" stroke="#3a414a" fill="none"/><path d="M1460.85 1043.8h-.52v-.94h.52z" stroke="#3a414a" stroke-width=".05" fill="#3a414a"/><path d="M1656.7 643.33l-14.25 4.64v-9.27z" stroke="#3a414a" fill="#3a414a"/><path d="M1959.33 549.33a6 6 0 0 1 6-6h188a6 6 0 0 1 6 6v189.53a6 6 0 0 1-6 6h-188a6 6 0 0 1-6-6z" stroke="#000" stroke-width="2" fill="#fff"/><g><use xlink:href="#E" transform="matrix(1,0,0,1,1971.333333333333,555.3333333333335) translate(16.249782986111114 99.40277777777777)"/><use xlink:href="#D" transform="matrix(1,0,0,1,1971.333333333333,555.3333333333335) translate(91.68381076388889 99.40277777777777)"/></g><path d="M1460.83 743.33h92.5a6 6 0 0 0 6-6v-88a6 6 0 0 1 6-6h76.62" stroke="#3a414a" fill="none"/><path d="M1460.85 743.8h-.52v-.94h.52z" stroke="#3a414a" stroke-width=".05" fill="#3a414a"/><path d="M1656.7 643.33l-14.25 4.64v-9.27z" stroke="#3a414a" fill="#3a414a"/><path d="M1460.83 443.33h92.5a6 6 0 0 1 6 6v188a6 6 0 0 0 6 6h76.62" stroke="#3a414a" fill="none"/><path d="M1460.85 443.8h-.52v-.94h.52z" stroke="#3a414a" stroke-width=".05" fill="#3a414a"/><path d="M1656.7 643.33l-14.25 4.64v-9.27z" stroke="#3a414a" fill="#3a414a"/><path d="M1460.83 143.33h92.5a6 6 0 0 1 6 6v488a6 6 0 0 0 6 6h76.62" stroke="#3a414a" fill="none"/><path d="M1460.85 143.8h-.52v-.94h.52z" stroke="#3a414a" stroke-width=".05" fill="#3a414a"/><path d="M1656.7 643.33l-14.25 4.64v-9.27z" stroke="#3a414a" fill="#3a414a"/><path d="M1860.83 643.33h81.12" stroke="#3a414a" fill="none"/><path d="M1860.85 643.8h-.52v-.94h.52z" stroke="#3a414a" stroke-width=".05" fill="#3a414a"/><path d="M1956.7 643.33l-14.25 4.64v-9.27z" stroke="#3a414a" fill="#3a414a"/><path d="M1359.33 849.33a6 6 0 0 1 6-6h8a6 6 0 0 1 6 6v89.43a6 6 0 0 1-6 6h-8a6 6 0 0 1-6-6z" fill="none"/><g><use xlink:href="#x" transform="matrix(1,0,0,1,1364.333333333333,848.3333333333337) translate(0 21.818142361111114)"/><use xlink:href="#x" transform="matrix(1,0,0,1,1364.333333333333,848.3333333333337) translate(0 54.083767361111114)"/><use xlink:href="#y" transform="matrix(1,0,0,1,1364.333333333333,848.3333333333337) translate(0 86.34939236111111)"/></g><defs><path d="M784 20c-382 0-662-292-662-764 0-473 280-766 662-766s660 293 660 766c0 472-278 764-660 764zm0-176c266 0 475-207 475-588 0-383-209-590-475-590-268 0-477 208-477 590 0 380 209 588 477 588" id="F"/><path d="M677 24c-213 0-288-135-325-197h-20V0H158v-1490h180v551h14c37-59 106-193 324-193 279 0 474 222 474 576 0 356-194 580-473 580zm-27-161c209 0 317-186 317-421 0-232-105-413-317-413-206 0-314 166-314 413 0 249 111 421 314 421" id="G"/><path d="M598-1118v154H368v674c0 100 37 144 132 144 23 0 62-6 92-12L629-6c-37 13-88 20-134 20-193 0-307-107-307-290v-688H20v-154h168v-266h180v266h230" id="H"/><path d="M471 26C259 26 90-98 90-318c0-256 228-303 435-329 202-27 287-16 287-108 0-139-79-219-234-219-161 0-248 86-283 164l-173-57c86-203 278-265 451-265 150 0 419 46 419 395V0H815v-152h-12C765-73 660 26 471 26zm31-159c199 0 310-134 310-271v-155c-30 35-226 55-295 64-131 17-246 59-246 186 0 116 97 176 231 176" id="I"/><path d="M158 0v-1118h180V0H158zm91-1301c-68 0-125-53-125-119s57-119 125-119c69 0 126 53 126 119s-57 119-126 119" id="J"/><path d="M338-670V0H158v-1118h173l1 207c72-158 192-221 342-221 226 0 378 139 378 422V0H872v-695c0-172-96-275-252-275-161 0-282 109-282 300" id="K"/><g id="a"><use transform="matrix(0.010850694444444444,0,0,0.010850694444444444,0,0)" xlink:href="#F"/><use transform="matrix(0.010850694444444444,0,0,0.010850694444444444,16.9921875,0)" xlink:href="#G"/><use transform="matrix(0.010850694444444444,0,0,0.010850694444444444,30.598958333333332,0)" xlink:href="#H"/><use transform="matrix(0.010850694444444444,0,0,0.010850694444444444,37.97743055555555,0)" xlink:href="#I"/><use transform="matrix(0.010850694444444444,0,0,0.010850694444444444,50.45572916666666,0)" xlink:href="#J"/><use transform="matrix(0.010850694444444444,0,0,0.010850694444444444,55.8376736111111,0)" xlink:href="#K"/></g><path d="M158 0v-1118h175l1 205c55-151 181-225 313-225 147 0 245 90 285 228 53-141 190-228 352-228 194 0 352 125 352 384V0h-181v-749c0-161-105-225-225-225-151 0-243 103-243 244V0H807v-767c0-124-93-207-219-207-131 0-250 92-250 270V0H158" id="L"/><path d="M628 24c-324 0-524-230-524-574 0-343 198-582 503-582 237 0 487 146 487 559v75H286c9 234 145 362 343 362 132 0 231-58 273-172l174 48C1024-91 857 24 628 24zM287-650h624c-17-190-120-322-304-322-192 0-309 151-320 322" id="M"/><g id="b"><use transform="matrix(0.010850694444444444,0,0,0.010850694444444444,0,0)" xlink:href="#H"/><use transform="matrix(0.010850694444444444,0,0,0.010850694444444444,7.269965277777778,0)" xlink:href="#J"/><use transform="matrix(0.010850694444444444,0,0,0.010850694444444444,12.651909722222221,0)" xlink:href="#L"/><use transform="matrix(0.010850694444444444,0,0,0.010850694444444444,32.11805555555556,0)" xlink:href="#M"/></g><path d="M538 24C308 24 148-78 108-271l171-41c32 123 123 178 257 178 156 0 256-77 256-169 0-77-54-128-164-154l-186-44c-203-48-300-148-300-305 0-192 176-326 414-326 230 0 351 112 402 269l-163 42c-31-80-94-158-238-158-133 0-233 69-233 162 0 83 57 129 188 160l169 40c203 48 298 149 298 302 0 196-179 339-441 339" id="N"/><path d="M158 0v-1118h174v172h12c41-113 157-188 290-188 26 0 70 2 91 3v181c-11-2-60-10-108-10-161 0-279 109-279 260V0H158" id="O"/><g id="c"><use transform="matrix(0.010850694444444444,0,0,0.010850694444444444,0,0)" xlink:href="#N"/><use transform="matrix(0.010850694444444444,0,0,0.010850694444444444,11.729600694444445,0)" xlink:href="#M"/><use transform="matrix(0.010850694444444444,0,0,0.010850694444444444,24.68532986111111,0)" xlink:href="#O"/><use transform="matrix(0.010850694444444444,0,0,0.010850694444444444,33.3984375,0)" xlink:href="#J"/><use transform="matrix(0.010850694444444444,0,0,0.010850694444444444,38.78038194444444,0)" xlink:href="#M"/><use transform="matrix(0.010850694444444444,0,0,0.010850694444444444,51.73611111111111,0)" xlink:href="#N"/></g><path d="M789 20c-398 0-667-293-667-764 0-473 273-766 655-766 315 0 558 198 612 487h-196c-61-191-204-311-415-311-262 0-471 207-471 590 0 380 208 588 482 588 249 0 420-165 425-427H828v-166h572v163c0 370-256 606-611 606" id="P"/><g id="d"><use transform="matrix(0.010850694444444444,0,0,0.010850694444444444,0,0)" xlink:href="#P"/><use transform="matrix(0.010850694444444444,0,0,0.010850694444444444,16.57986111111111,0)" xlink:href="#M"/><use transform="matrix(0.010850694444444444,0,0,0.010850694444444444,29.535590277777775,0)" xlink:href="#H"/></g><path d="M158 0v-1490h180v865h22l478-493h223L593-638 1096 0H865L456-523 338-412V0H158" id="Q"/><use transform="matrix(0.010850694444444444,0,0,0.010850694444444444,0,0)" xlink:href="#Q" id="e"/><g id="f"><use transform="matrix(0.010850694444444444,0,0,0.010850694444444444,0,0)" xlink:href="#K"/><use transform="matrix(0.010850694444444444,0,0,0.010850694444444444,13.129340277777777,0)" xlink:href="#M"/><use transform="matrix(0.010850694444444444,0,0,0.010850694444444444,26.302083333333332,0)" xlink:href="#I"/><use transform="matrix(0.010850694444444444,0,0,0.010850694444444444,38.78038194444444,0)" xlink:href="#O"/><use transform="matrix(0.010850694444444444,0,0,0.010850694444444444,46.777343749999986,0)" xlink:href="#M"/><use transform="matrix(0.010850694444444444,0,0,0.010850694444444444,59.73307291666666,0)" xlink:href="#N"/><use transform="matrix(0.010850694444444444,0,0,0.010850694444444444,71.4626736111111,0)" xlink:href="#H"/></g><path d="M611 442c-248 0-391-105-460-228l146-94c47 65 117 165 314 165 178 0 307-82 307-266v-224h-17C863-141 792-18 576-18c-268 0-472-195-472-546 0-346 197-568 476-568 216 0 288 133 326 193h17v-179h175V29c0 289-215 413-487 413zm-5-620c203 0 314-146 314-390 0-237-108-403-314-403-213 0-319 180-319 403 0 230 109 390 319 390" id="R"/><path d="M338-670V0H158v-1490h180v566c73-149 190-208 336-208 226 0 379 139 379 422V0H872v-695c0-172-96-275-252-275-161 0-282 109-282 300" id="S"/><path d="M613 24c-304 0-509-231-509-576 0-350 205-580 509-580 305 0 511 230 511 580 0 345-206 576-511 576zm0-161c226 0 329-195 329-415 0-222-103-419-329-419-223 0-326 196-326 419 0 220 103 415 326 415" id="T"/><g id="g"><use transform="matrix(0.010850694444444444,0,0,0.010850694444444444,0,0)" xlink:href="#K"/><use transform="matrix(0.010850694444444444,0,0,0.010850694444444444,13.129340277777777,0)" xlink:href="#M"/><use transform="matrix(0.010850694444444444,0,0,0.010850694444444444,26.085069444444443,0)" xlink:href="#J"/><use transform="matrix(0.010850694444444444,0,0,0.010850694444444444,31.46701388888889,0)" xlink:href="#R"/><use transform="matrix(0.010850694444444444,0,0,0.010850694444444444,45.09548611111111,0)" xlink:href="#S"/><use transform="matrix(0.010850694444444444,0,0,0.010850694444444444,58.23567708333333,0)" xlink:href="#G"/><use transform="matrix(0.010850694444444444,0,0,0.010850694444444444,71.84244791666666,0)" xlink:href="#T"/><use transform="matrix(0.010850694444444444,0,0,0.010850694444444444,85.16710069444443,0)" xlink:href="#O"/><use transform="matrix(0.010850694444444444,0,0,0.010850694444444444,93.53298611111111,0)" xlink:href="#N"/></g><path d="M763 24c-353 0-583-224-583-531v-983h190v968c0 214 149 370 393 370 243 0 391-156 391-370v-968h190v983c0 307-230 531-581 531" id="U"/><g id="h"><use transform="matrix(0.010850694444444444,0,0,0.010850694444444444,0,0)" xlink:href="#U"/><use transform="matrix(0.010850694444444444,0,0,0.010850694444444444,16.536458333333332,0)" xlink:href="#N"/><use transform="matrix(0.010850694444444444,0,0,0.010850694444444444,28.266059027777775,0)" xlink:href="#M"/></g><path d="M653-1490V0H466v-1314h-10L96-1047v-204l324-239h233" id="V"/><g id="i"><use transform="matrix(0.010850694444444444,0,0,0.010850694444444444,0,0)" xlink:href="#V"/><use transform="matrix(0.010850694444444444,0,0,0.010850694444444444,9.038628472222221,0)" xlink:href="#N"/><use transform="matrix(0.010850694444444444,0,0,0.010850694444444444,20.768229166666664,0)" xlink:href="#H"/></g><g id="j"><use transform="matrix(0.010850694444444444,0,0,0.010850694444444444,0,0)" xlink:href="#K"/><use transform="matrix(0.010850694444444444,0,0,0.010850694444444444,13.129340277777777,0)" xlink:href="#M"/><use transform="matrix(0.010850694444444444,0,0,0.010850694444444444,26.085069444444443,0)" xlink:href="#J"/><use transform="matrix(0.010850694444444444,0,0,0.010850694444444444,31.46701388888889,0)" xlink:href="#R"/><use transform="matrix(0.010850694444444444,0,0,0.010850694444444444,45.09548611111111,0)" xlink:href="#S"/><use transform="matrix(0.010850694444444444,0,0,0.010850694444444444,58.23567708333333,0)" xlink:href="#G"/><use transform="matrix(0.010850694444444444,0,0,0.010850694444444444,71.84244791666666,0)" xlink:href="#T"/><use transform="matrix(0.010850694444444444,0,0,0.010850694444444444,85.16710069444443,0)" xlink:href="#O"/></g><g id="k"><use transform="matrix(0.010850694444444444,0,0,0.010850694444444444,0,0)" xlink:href="#J"/><use transform="matrix(0.010850694444444444,0,0,0.010850694444444444,5.381944444444445,0)" xlink:href="#K"/></g><g id="l"><use transform="matrix(0.010850694444444444,0,0,0.010850694444444444,0,0)" xlink:href="#H"/><use transform="matrix(0.010850694444444444,0,0,0.010850694444444444,7.269965277777778,0)" xlink:href="#J"/><use transform="matrix(0.010850694444444444,0,0,0.010850694444444444,12.651909722222221,0)" xlink:href="#L"/><use transform="matrix(0.010850694444444444,0,0,0.010850694444444444,32.11805555555556,0)" xlink:href="#M"/></g><path d="M154 0v-137l495-537c165-179 249-281 249-418 0-156-121-253-280-253-170 0-278 110-278 278H158c0-264 200-443 465-443 266 0 455 183 455 416 0 161-73 288-336 568L416-179v12h687V0H154" id="W"/><path d="M577 24c-279 0-473-224-473-580 0-354 195-576 474-576 218 0 287 134 324 193h14v-551h180V0H922v-173h-20C865-111 790 24 577 24zm27-161c203 0 314-172 314-421 0-247-108-413-314-413-212 0-317 181-317 413 0 235 108 421 317 421" id="X"/><g id="m"><use transform="matrix(0.010850694444444444,0,0,0.010850694444444444,0,0)" xlink:href="#W"/><use transform="matrix(0.010850694444444444,0,0,0.010850694444444444,13.55251736111111,0)" xlink:href="#K"/><use transform="matrix(0.010850694444444444,0,0,0.010850694444444444,26.68185763888889,0)" xlink:href="#X"/></g><g id="n"><use transform="matrix(0.010850694444444444,0,0,0.010850694444444444,0,0)" xlink:href="#K"/><use transform="matrix(0.010850694444444444,0,0,0.010850694444444444,13.129340277777777,0)" xlink:href="#M"/><use transform="matrix(0.010850694444444444,0,0,0.010850694444444444,26.085069444444443,0)" xlink:href="#J"/><use transform="matrix(0.010850694444444444,0,0,0.010850694444444444,31.46701388888889,0)" xlink:href="#R"/><use transform="matrix(0.010850694444444444,0,0,0.010850694444444444,45.09548611111111,0)" xlink:href="#S"/><use transform="matrix(0.010850694444444444,0,0,0.010850694444444444,58.23567708333333,0)" xlink:href="#G"/><use transform="matrix(0.010850694444444444,0,0,0.010850694444444444,71.84244791666666,0)" xlink:href="#T"/><use transform="matrix(0.010850694444444444,0,0,0.010850694444444444,85.16710069444443,0)" xlink:href="#O"/></g><g id="o"><use transform="matrix(0.010850694444444444,0,0,0.010850694444444444,0,0)" xlink:href="#H"/><use transform="matrix(0.010850694444444444,0,0,0.010850694444444444,7.269965277777778,0)" xlink:href="#J"/><use transform="matrix(0.010850694444444444,0,0,0.010850694444444444,12.651909722222221,0)" xlink:href="#L"/><use transform="matrix(0.010850694444444444,0,0,0.010850694444444444,32.11805555555556,0)" xlink:href="#M"/></g><path d="M635 20c-292 0-500-160-510-396h192c11 142 145 229 315 229 187 0 323-105 323-260 0-161-125-274-346-274H488v-165h121c174 0 294-100 294-254 0-148-104-245-266-245-152 0-291 85-297 230H157c8-234 222-395 484-395 278 0 448 188 448 400 0 168-95 291-247 336v12c190 31 301 169 301 357 0 244-216 425-508 425" id="Y"/><g id="p"><use transform="matrix(0.010850694444444444,0,0,0.010850694444444444,0,0)" xlink:href="#Y"/><use transform="matrix(0.010850694444444444,0,0,0.010850694444444444,13.726128472222221,0)" xlink:href="#O"/><use transform="matrix(0.010850694444444444,0,0,0.010850694444444444,21.72309027777778,0)" xlink:href="#X"/></g><g id="q"><use transform="matrix(0.010850694444444444,0,0,0.010850694444444444,0,0)" xlink:href="#K"/><use transform="matrix(0.010850694444444444,0,0,0.010850694444444444,13.129340277777777,0)" xlink:href="#H"/><use transform="matrix(0.010850694444444444,0,0,0.010850694444444444,20.399305555555554,0)" xlink:href="#S"/></g><path d="M180 0v-1490h901v168H370v510h643v168H370V0H180" id="Z"/><path d="M613 24c-304 0-509-231-509-576 0-350 205-580 509-580 216 0 392 114 453 309l-173 49c-33-115-133-197-280-197-223 0-326 196-326 419 0 220 103 415 326 415 150 0 252-85 285-206l172 49C1010-95 832 24 613 24" id="aa"/><g id="r"><use transform="matrix(0.010850694444444444,0,0,0.010850694444444444,0,0)" xlink:href="#Z"/><use transform="matrix(0.010850694444444444,0,0,0.010850694444444444,12.239583333333332,0)" xlink:href="#T"/><use transform="matrix(0.010850694444444444,0,0,0.010850694444444444,25.564236111111104,0)" xlink:href="#O"/><use transform="matrix(0.010850694444444444,0,0,0.010850694444444444,33.561197916666664,0)" xlink:href="#M"/><use transform="matrix(0.010850694444444444,0,0,0.010850694444444444,46.51692708333333,0)" xlink:href="#aa"/><use transform="matrix(0.010850694444444444,0,0,0.010850694444444444,59.42925347222221,0)" xlink:href="#I"/><use transform="matrix(0.010850694444444444,0,0,0.010850694444444444,71.90755208333333,0)" xlink:href="#N"/><use transform="matrix(0.010850694444444444,0,0,0.010850694444444444,83.63715277777777,0)" xlink:href="#H"/></g><path d="M481 0L54-1118h197c107 314 236 620 325 951 87-331 217-637 324-951h197L670 0H481" id="ab"/><path d="M338-1490V0H158v-1490h180" id="ac"/><path d="M537 14c-226 0-379-139-379-422v-710h180v695c0 172 97 275 253 275 160 0 281-109 281-300v-670h181V0H879v-209C806-46 684 14 537 14" id="ad"/><g id="s"><use transform="matrix(0.010850694444444444,0,0,0.010850694444444444,0,0)" xlink:href="#ab"/><use transform="matrix(0.010850694444444444,0,0,0.010850694444444444,12.38064236111111,0)" xlink:href="#I"/><use transform="matrix(0.010850694444444444,0,0,0.010850694444444444,24.85894097222222,0)" xlink:href="#ac"/><use transform="matrix(0.010850694444444444,0,0,0.010850694444444444,30.240885416666664,0)" xlink:href="#ad"/><use transform="matrix(0.010850694444444444,0,0,0.010850694444444444,43.381076388888886,0)" xlink:href="#M"/></g><path d="M678-1118v154H420V0H240v-964H20v-154h220v-149c0-194 155-293 318-293 85 0 141 18 168 30l-50 154c-19-6-47-17-97-17-111 0-159 58-159 166v109h258" id="ae"/><g id="t"><use transform="matrix(0.010850694444444444,0,0,0.010850694444444444,0,0)" xlink:href="#ae"/><use transform="matrix(0.010850694444444444,0,0,0.010850694444444444,7.573784722222222,0)" xlink:href="#T"/><use transform="matrix(0.010850694444444444,0,0,0.010850694444444444,20.8984375,0)" xlink:href="#O"/></g><g id="u"><use transform="matrix(0.010850694444444444,0,0,0.010850694444444444,0,0)" xlink:href="#W"/><use transform="matrix(0.010850694444444444,0,0,0.010850694444444444,13.55251736111111,0)" xlink:href="#K"/><use transform="matrix(0.010850694444444444,0,0,0.010850694444444444,26.68185763888889,0)" xlink:href="#X"/></g><g id="v"><use transform="matrix(0.010850694444444444,0,0,0.010850694444444444,0,0)" xlink:href="#Y"/><use transform="matrix(0.010850694444444444,0,0,0.010850694444444444,13.726128472222221,0)" xlink:href="#O"/><use transform="matrix(0.010850694444444444,0,0,0.010850694444444444,21.72309027777778,0)" xlink:href="#X"/></g><g id="w"><use transform="matrix(0.010850694444444444,0,0,0.010850694444444444,0,0)" xlink:href="#K"/><use transform="matrix(0.010850694444444444,0,0,0.010850694444444444,13.129340277777777,0)" xlink:href="#H"/><use transform="matrix(0.010850694444444444,0,0,0.010850694444444444,20.399305555555554,0)" xlink:href="#S"/></g><path d="M295 13c-75 0-135-60-135-135s60-135 135-135 135 60 135 135S370 13 295 13" id="af"/><use transform="matrix(0.010850694444444444,0,0,0.010850694444444444,0,0)" xlink:href="#af" id="x"/><use transform="matrix(0.010850694444444444,0,0,0.010850694444444444,0,0)" xlink:href="#af" id="y"/><path d="M783 20c-382 0-661-292-661-764 0-473 279-766 661-766 302 0 548 182 601 489h-190c-42-204-217-313-411-313-268 0-476 208-476 590 0 381 209 588 476 588 195 0 369-110 411-313h190c-52 303-296 489-601 489" id="ag"/><g id="z"><use transform="matrix(0.010850694444444444,0,0,0.010850694444444444,0,0)" xlink:href="#ag"/><use transform="matrix(0.010850694444444444,0,0,0.010850694444444444,16.23263888888889,0)" xlink:href="#I"/><use transform="matrix(0.010850694444444444,0,0,0.010850694444444444,28.7109375,0)" xlink:href="#ac"/><use transform="matrix(0.010850694444444444,0,0,0.010850694444444444,34.09288194444444,0)" xlink:href="#aa"/><use transform="matrix(0.010850694444444444,0,0,0.010850694444444444,46.78819444444444,0)" xlink:href="#ad"/><use transform="matrix(0.010850694444444444,0,0,0.010850694444444444,59.928385416666664,0)" xlink:href="#ac"/><use transform="matrix(0.010850694444444444,0,0,0.010850694444444444,65.31032986111111,0)" xlink:href="#I"/><use transform="matrix(0.010850694444444444,0,0,0.010850694444444444,77.78862847222223,0)" xlink:href="#H"/><use transform="matrix(0.010850694444444444,0,0,0.010850694444444444,84.84157986111111,0)" xlink:href="#M"/></g><g id="A"><use transform="matrix(0.010850694444444444,0,0,0.010850694444444444,0,0)" xlink:href="#H"/><use transform="matrix(0.010850694444444444,0,0,0.010850694444444444,7.269965277777778,0)" xlink:href="#S"/><use transform="matrix(0.010850694444444444,0,0,0.010850694444444444,20.41015625,0)" xlink:href="#M"/></g><g id="B"><use transform="matrix(0.010850694444444444,0,0,0.010850694444444444,0,0)" xlink:href="#L"/><use transform="matrix(0.010850694444444444,0,0,0.010850694444444444,19.466145833333332,0)" xlink:href="#M"/><use transform="matrix(0.010850694444444444,0,0,0.010850694444444444,32.638888888888886,0)" xlink:href="#I"/><use transform="matrix(0.010850694444444444,0,0,0.010850694444444444,45.1171875,0)" xlink:href="#K"/></g><g id="C"><use transform="matrix(0.010850694444444444,0,0,0.010850694444444444,0,0)" xlink:href="#ae"/><use transform="matrix(0.010850694444444444,0,0,0.010850694444444444,7.573784722222222,0)" xlink:href="#T"/><use transform="matrix(0.010850694444444444,0,0,0.010850694444444444,20.8984375,0)" xlink:href="#O"/><use transform="matrix(0.010850694444444444,0,0,0.010850694444444444,28.89539930555556,0)" xlink:href="#M"/><use transform="matrix(0.010850694444444444,0,0,0.010850694444444444,41.85112847222222,0)" xlink:href="#aa"/><use transform="matrix(0.010850694444444444,0,0,0.010850694444444444,54.76345486111111,0)" xlink:href="#I"/><use transform="matrix(0.010850694444444444,0,0,0.010850694444444444,67.24175347222221,0)" xlink:href="#N"/><use transform="matrix(0.010850694444444444,0,0,0.010850694444444444,78.97135416666666,0)" xlink:href="#H"/><use transform="matrix(0.010850694444444444,0,0,0.010850694444444444,86.02430555555554,0)" xlink:href="#M"/><use transform="matrix(0.010850694444444444,0,0,0.010850694444444444,98.98003472222221,0)" xlink:href="#X"/></g><g id="D"><use transform="matrix(0.010850694444444444,0,0,0.010850694444444444,0,0)" xlink:href="#ab"/><use transform="matrix(0.010850694444444444,0,0,0.010850694444444444,12.38064236111111,0)" xlink:href="#I"/><use transform="matrix(0.010850694444444444,0,0,0.010850694444444444,24.85894097222222,0)" xlink:href="#ac"/><use transform="matrix(0.010850694444444444,0,0,0.010850694444444444,30.240885416666664,0)" xlink:href="#ad"/><use transform="matrix(0.010850694444444444,0,0,0.010850694444444444,43.381076388888886,0)" xlink:href="#M"/><use transform="matrix(0.010850694444444444,0,0,0.010850694444444444,56.33680555555555,0)" xlink:href="#N"/></g><path d="M180 0v-1490h510c348 0 508 194 508 460 0 198-88 351-276 417L1256 0h-220L726-579c-117 2-238 0-356 1V0H180zm190-747h312c235 0 327-108 327-283 0-177-92-293-329-293H370v576" id="ah"/><g id="E"><use transform="matrix(0.010850694444444444,0,0,0.010850694444444444,0,0)" xlink:href="#ah"/><use transform="matrix(0.010850694444444444,0,0,0.010850694444444444,13.975694444444445,0)" xlink:href="#M"/><use transform="matrix(0.010850694444444444,0,0,0.010850694444444444,26.931423611111104,0)" xlink:href="#H"/><use transform="matrix(0.010850694444444444,0,0,0.010850694444444444,34.201388888888886,0)" xlink:href="#ad"/><use transform="matrix(0.010850694444444444,0,0,0.010850694444444444,47.34157986111111,0)" xlink:href="#O"/><use transform="matrix(0.010850694444444444,0,0,0.010850694444444444,56.054687499999986,0)" xlink:href="#K"/></g></defs></g></svg>