<svg xmlns="http://www.w3.org/2000/svg" xmlns:xlink="http://www.w3.org/1999/xlink" xmlns:lucid="lucid" width="2222" height="1282"><g transform="translate(-2519 -219)" lucid:page-tab-id="HU.eLRqJsZIu"><path d="M2500 0h2500v2000H2500z" fill="#fff"/><path d="M2520 261.9V226a6 6 0 0 1 6-6h514v41.9zM3040 220h620v41.9h-620zM3660 220h540v41.9h-540zM4200 220h534a6 6 0 0 1 6 6v35.9h-540z" stroke="#000" stroke-width="2" fill="#fff"/><path d="M3040 1500h-514a6 6 0 0 1-6-6V261.9h520zM3040 261.9h620V1500h-620zM3660 261.9h540V1500h-540zM4740 261.9V1494a6 6 0 0 1-6 6h-534V261.9z" stroke="#000" stroke-width="2" fill="none"/><use xlink:href="#a" transform="matrix(1,0,0,1,2520,220) translate(98.17361111111114 29.08376736111111)"/><use xlink:href="#b" transform="matrix(1,0,0,1,2520,220) translate(152.29687500000003 29.08376736111111)"/><use xlink:href="#c" transform="matrix(1,0,0,1,2520,220) translate(173.98741319444446 29.08376736111111)"/><use xlink:href="#d" transform="matrix(1,0,0,1,2520,220) translate(223.8029513888889 29.08376736111111)"/><use xlink:href="#e" transform="matrix(1,0,0,1,2520,220) translate(275.12673611111114 29.08376736111111)"/><use xlink:href="#f" transform="matrix(1,0,0,1,2520,220) translate(344.8424479166667 29.08376736111111)"/><use xlink:href="#g" transform="matrix(1,0,0,1,2520,220) translate(376.75434027777777 29.08376736111111)"/><use xlink:href="#a" transform="matrix(1,0,0,1,3040,220) translate(61.22157118055554 29.08376736111111)"/><use xlink:href="#h" transform="matrix(1,0,0,1,3040,220) translate(115.34483506944443 29.08376736111111)"/><use xlink:href="#i" transform="matrix(1,0,0,1,3040,220) translate(141.54926215277777 29.08376736111111)"/><use xlink:href="#j" transform="matrix(1,0,0,1,3040,220) translate(217.68858506944443 29.08376736111111)"/><use xlink:href="#k" transform="matrix(1,0,0,1,3040,220) translate(348.7649739583333 29.08376736111111)"/><use xlink:href="#l" transform="matrix(1,0,0,1,3040,220) translate(420.45551215277777 29.08376736111111)"/><use xlink:href="#m" transform="matrix(1,0,0,1,3040,220) translate(455.96983506944446 29.08376736111111)"/><use xlink:href="#g" transform="matrix(1,0,0,1,3040,220) translate(513.7063802083334 29.08376736111111)"/><use xlink:href="#a" transform="matrix(1,0,0,1,3660,220) translate(70.146484375 29.08376736111111)"/><use xlink:href="#n" transform="matrix(1,0,0,1,3660,220) translate(124.26974826388889 29.08376736111111)"/><use xlink:href="#o" transform="matrix(1,0,0,1,3660,220) translate(150.64778645833331 29.08376736111111)"/><use xlink:href="#m" transform="matrix(1,0,0,1,3660,220) translate(227.7419704861111 29.08376736111111)"/><use xlink:href="#k" transform="matrix(1,0,0,1,3660,220) translate(285.478515625 29.08376736111111)"/><use xlink:href="#p" transform="matrix(1,0,0,1,3660,220) translate(357.1690538194444 29.08376736111111)"/><use xlink:href="#q" transform="matrix(1,0,0,1,3660,220) translate(383.7966579861111 29.08376736111111)"/><use xlink:href="#r" transform="matrix(1,0,0,1,3660,220) translate(415.654296875 29.08376736111111)"/><use xlink:href="#a" transform="matrix(1,0,0,1,4200,220) translate(19.452039930555543 29.08376736111111)"/><use xlink:href="#s" transform="matrix(1,0,0,1,4200,220) translate(73.57530381944443 29.08376736111111)"/><use xlink:href="#i" transform="matrix(1,0,0,1,4200,220) translate(100.58268229166666 29.08376736111111)"/><use xlink:href="#j" transform="matrix(1,0,0,1,4200,220) translate(176.72200520833331 29.08376736111111)"/><use xlink:href="#k" transform="matrix(1,0,0,1,4200,220) translate(307.7983940972222 29.08376736111111)"/><use xlink:href="#l" transform="matrix(1,0,0,1,4200,220) translate(379.48893229166663 29.08376736111111)"/><use xlink:href="#t" transform="matrix(1,0,0,1,4200,220) translate(415.0032552083333 29.08376736111111)"/><use xlink:href="#u" transform="matrix(1,0,0,1,4200,220) translate(454.619140625 29.08376736111111)"/><path d="M2580 368.83a6 6 0 0 1 6-6h231.1a6 6 0 0 1 6 6v167.95a6 6 0 0 1-6 6H2586a6 6 0 0 1-6-6z" stroke="#000" stroke-width="2" fill="#fff"/><use xlink:href="#v" transform="matrix(1,0,0,1,2592,374.83203125000057) translate(3.2671440972222143 26.40277777777778)"/><use xlink:href="#w" transform="matrix(1,0,0,1,2592,374.83203125000057) translate(1.0101996527777715 58.66840277777778)"/><use xlink:href="#x" transform="matrix(1,0,0,1,2592,374.83203125000057) translate(0.9233940972222143 90.93402777777777)"/><use xlink:href="#y" transform="matrix(1,0,0,1,2592,374.83203125000057) translate(100.39713541666667 123.19965277777777)"/><use xlink:href="#z" transform="matrix(1,0,0,1,2592,374.83203125000057) translate(2.789713541666657 155.46527777777777)"/><path d="M2580 331.93a6 6 0 0 1 6-6h166.3a6 6 0 0 1 6 6v24.9a6 6 0 0 1-6 6H2586a6 6 0 0 1-6-6z" fill="none"/><use xlink:href="#A" transform="matrix(1,0,0,1,2585,330.9340104166672) translate(0 21.58376736111111)"/><use xlink:href="#B" transform="matrix(1,0,0,1,2585,330.9340104166672) translate(53.645833333333336 21.58376736111111)"/><path d="M2580 679.1a6 6 0 0 1 6-6h231.1a6 6 0 0 1 6 6v167.96a6 6 0 0 1-6 6H2586a6 6 0 0 1-6-6z" stroke="#000" stroke-width="2" fill="#fff"/><use xlink:href="#v" transform="matrix(1,0,0,1,2592,685.1061458333334) translate(3.2671440972222143 26.40277777777778)"/><use xlink:href="#w" transform="matrix(1,0,0,1,2592,685.1061458333334) translate(1.0101996527777715 58.66840277777778)"/><use xlink:href="#x" transform="matrix(1,0,0,1,2592,685.1061458333334) translate(0.9233940972222143 90.93402777777777)"/><use xlink:href="#y" transform="matrix(1,0,0,1,2592,685.1061458333334) translate(100.39713541666667 123.19965277777777)"/><use xlink:href="#z" transform="matrix(1,0,0,1,2592,685.1061458333334) translate(2.789713541666657 155.46527777777777)"/><path d="M2580 1002.9a6 6 0 0 1 6-6h231.1a6 6 0 0 1 6 6v167.95a6 6 0 0 1-6 6H2586a6 6 0 0 1-6-6z" stroke="#000" stroke-width="2" fill="#fff"/><use xlink:href="#v" transform="matrix(1,0,0,1,2592,1008.8980208333334) translate(3.2671440972222143 26.40277777777778)"/><use xlink:href="#w" transform="matrix(1,0,0,1,2592,1008.8980208333334) translate(1.0101996527777715 58.66840277777778)"/><use xlink:href="#x" transform="matrix(1,0,0,1,2592,1008.8980208333334) translate(0.9233940972222143 90.93402777777777)"/><use xlink:href="#y" transform="matrix(1,0,0,1,2592,1008.8980208333334) translate(100.39713541666667 123.19965277777777)"/><use xlink:href="#z" transform="matrix(1,0,0,1,2592,1008.8980208333334) translate(2.789713541666657 155.46527777777777)"/><path d="M2580 1284.16a6 6 0 0 1 6-6h231.1a6 6 0 0 1 6 6v167.96a6 6 0 0 1-6 6H2586a6 6 0 0 1-6-6z" stroke="#000" stroke-width="2" fill="#fff"/><use xlink:href="#v" transform="matrix(1,0,0,1,2592,1290.165364583334) translate(3.2671440972222143 26.40277777777778)"/><use xlink:href="#w" transform="matrix(1,0,0,1,2592,1290.165364583334) translate(1.0101996527777715 58.66840277777778)"/><use xlink:href="#x" transform="matrix(1,0,0,1,2592,1290.165364583334) translate(0.9233940972222143 90.93402777777777)"/><use xlink:href="#y" transform="matrix(1,0,0,1,2592,1290.165364583334) translate(100.39713541666667 123.19965277777777)"/><use xlink:href="#z" transform="matrix(1,0,0,1,2592,1290.165364583334) translate(2.789713541666657 155.46527777777777)"/><path d="M2580 642.2a6 6 0 0 1 6-6h166.3a6 6 0 0 1 6 6v24.9a6 6 0 0 1-6 6H2586a6 6 0 0 1-6-6z" fill="none"/><use xlink:href="#A" transform="matrix(1,0,0,1,2585,641.208125) translate(0 21.58376736111111)"/><use xlink:href="#C" transform="matrix(1,0,0,1,2585,641.208125) translate(53.645833333333336 21.58376736111111)"/><path d="M2580 966a6 6 0 0 1 6-6h166.3a6 6 0 0 1 6 6v24.9a6 6 0 0 1-6 6H2586a6 6 0 0 1-6-6z" fill="none"/><use xlink:href="#A" transform="matrix(1,0,0,1,2585,965) translate(0 21.58376736111111)"/><use xlink:href="#D" transform="matrix(1,0,0,1,2585,965) translate(53.645833333333336 21.58376736111111)"/><path d="M2580 1247.27a6 6 0 0 1 6-6h166.3a6 6 0 0 1 6 6v24.9a6 6 0 0 1-6 6H2586a6 6 0 0 1-6-6z" fill="none"/><use xlink:href="#A" transform="matrix(1,0,0,1,2585,1246.2673437500007) translate(0 21.58376736111111)"/><use xlink:href="#E" transform="matrix(1,0,0,1,2585,1246.2673437500007) translate(53.645833333333336 21.58376736111111)"/><path d="M3100 331.93a6 6 0 0 1 6-6h388a6 6 0 0 1 6 6v24.9a6 6 0 0 1-6 6h-388a6 6 0 0 1-6-6z" fill="none"/><use xlink:href="#F" transform="matrix(1,0,0,1,3105,330.9340104166672) translate(0 21.58376736111111)"/><use xlink:href="#l" transform="matrix(1,0,0,1,3105,330.9340104166672) translate(81.10894097222223 21.58376736111111)"/><use xlink:href="#G" transform="matrix(1,0,0,1,3105,330.9340104166672) translate(116.62326388888889 21.58376736111111)"/><path d="M3100 646a6 6 0 0 1 6-6h388a6 6 0 0 1 6 6v24.9a6 6 0 0 1-6 6h-388a6 6 0 0 1-6-6z" fill="none"/><use xlink:href="#F" transform="matrix(1,0,0,1,3105,645) translate(0 21.58376736111111)"/><use xlink:href="#l" transform="matrix(1,0,0,1,3105,645) translate(81.10894097222223 21.58376736111111)"/><use xlink:href="#H" transform="matrix(1,0,0,1,3105,645) translate(116.62326388888889 21.58376736111111)"/><use xlink:href="#C" transform="matrix(1,0,0,1,3105,645) translate(168.9453125 21.58376736111111)"/><path d="M3100 966a6 6 0 0 1 6-6h388a6 6 0 0 1 6 6v24.9a6 6 0 0 1-6 6h-388a6 6 0 0 1-6-6z" fill="none"/><use xlink:href="#F" transform="matrix(1,0,0,1,3105,965) translate(0 21.58376736111111)"/><use xlink:href="#l" transform="matrix(1,0,0,1,3105,965) translate(81.10894097222223 21.58376736111111)"/><use xlink:href="#H" transform="matrix(1,0,0,1,3105,965) translate(116.62326388888889 21.58376736111111)"/><use xlink:href="#D" transform="matrix(1,0,0,1,3105,965) translate(168.9453125 21.58376736111111)"/><path d="M3100 1247.27a6 6 0 0 1 6-6h388a6 6 0 0 1 6 6v24.9a6 6 0 0 1-6 6h-388a6 6 0 0 1-6-6z" fill="none"/><use xlink:href="#F" transform="matrix(1,0,0,1,3105,1246.2673437500007) translate(0 21.58376736111111)"/><use xlink:href="#l" transform="matrix(1,0,0,1,3105,1246.2673437500007) translate(81.10894097222223 21.58376736111111)"/><use xlink:href="#H" transform="matrix(1,0,0,1,3105,1246.2673437500007) translate(116.62326388888889 21.58376736111111)"/><use xlink:href="#E" transform="matrix(1,0,0,1,3105,1246.2673437500007) translate(168.9453125 21.58376736111111)"/><path d="M3100 362.83h80v40h-80zM3180 362.83h80v40h-80zM3260 362.83h80v40h-80zM3340 362.83h80v40h-80zM3420 362.83h80v40h-80zM3100 402.83h80v40h-80zM3180 402.83h80v40h-80zM3260 402.83h80v40h-80zM3340 402.83h80v40h-80zM3420 402.83h80v40h-80zM3100 442.83h80v40h-80zM3180 442.83h80v40h-80zM3260 442.83h80v40h-80zM3340 442.83h80v40h-80zM3420 442.83h80v40h-80zM3100 482.83h80v40h-80zM3180 482.83h80v40h-80zM3260 482.83h80v40h-80zM3340 482.83h80v40h-80zM3420 482.83h80v40h-80zM3100 522.83h80v40h-80zM3180 522.83h80v40h-80zM3260 522.83h80v40h-80zM3340 522.83h80v40h-80zM3420 522.83h80v40h-80z" fill="#fff"/><path d="M3100 362.83v40M3100 362.83h80M3180 362.83v40M3180 362.83h80M3260 362.83v40M3260 362.83h80M3340 362.83v40M3340 362.83h80M3420 362.83v40M3500 362.83v40M3420 362.83h80M3100 402.83v40M3100 402.83h80M3180 402.83v40M3180 402.83h80M3260 402.83v40M3260 402.83h80M3340 402.83v40M3340 402.83h80M3420 402.83v40M3500 402.83v40M3420 402.83h80M3100 442.83v40M3100 442.83h80M3180 442.83v40M3180 442.83h80M3260 442.83v40M3260 442.83h80M3340 442.83v40M3340 442.83h80M3420 442.83v40M3500 442.83v40M3420 442.83h80M3100 482.83v40M3100 482.83h80M3180 482.83v40M3180 482.83h80M3260 482.83v40M3260 482.83h80M3340 482.83v40M3340 482.83h80M3420 482.83v40M3500 482.83v40M3420 482.83h80M3100 522.83v40M3100 522.83h80M3100 562.83h80M3180 522.83v40M3180 522.83h80M3180 562.83h80M3260 522.83v40M3260 522.83h80M3260 562.83h80M3340 522.83v40M3340 522.83h80M3340 562.83h80M3420 522.83v40M3500 522.83v40M3420 522.83h80M3420 562.83h80" stroke="#000" stroke-width="2" fill="none"/><use xlink:href="#I" transform="matrix(1,0,0,1,3185,367.83203125000057) translate(26.845703125 23.08376736111111)"/><use xlink:href="#J" transform="matrix(1,0,0,1,3265,367.83203125000057) translate(24.588758680555557 23.08376736111111)"/><use xlink:href="#K" transform="matrix(1,0,0,1,3345,367.83203125000057) translate(24.501953125 23.08376736111111)"/><use xlink:href="#L" transform="matrix(1,0,0,1,3425,367.83203125000057) translate(25.299479166666664 23.08376736111111)"/><use xlink:href="#I" transform="matrix(1,0,0,1,3105,407.83203125000057) translate(26.845703125 23.08376736111111)"/><use xlink:href="#M" transform="matrix(1,0,0,1,3185,407.83203125000057) translate(27.99045138888889 23.08376736111111)"/><use xlink:href="#N" transform="matrix(1,0,0,1,3265,407.83203125000057) translate(6.435546875 23.08376736111111)"/><use xlink:href="#O" transform="matrix(1,0,0,1,3345,407.83203125000057) translate(8.014322916666668 23.08376736111111)"/><use xlink:href="#P" transform="matrix(1,0,0,1,3425,407.83203125000057) translate(9.14279513888889 23.08376736111111)"/><use xlink:href="#J" transform="matrix(1,0,0,1,3105,447.83203125000057) translate(24.588758680555557 23.08376736111111)"/><use xlink:href="#N" transform="matrix(1,0,0,1,3185,447.83203125000057) translate(6.435546875 23.08376736111111)"/><use xlink:href="#M" transform="matrix(1,0,0,1,3265,447.83203125000057) translate(27.99045138888889 23.08376736111111)"/><use xlink:href="#Q" transform="matrix(1,0,0,1,3345,447.83203125000057) translate(6.484375 23.08376736111111)"/><use xlink:href="#R" transform="matrix(1,0,0,1,3425,447.83203125000057) translate(10.819227430555557 23.08376736111111)"/><use xlink:href="#K" transform="matrix(1,0,0,1,3105,487.83203125000057) translate(24.501953125 23.08376736111111)"/><use xlink:href="#O" transform="matrix(1,0,0,1,3185,487.83203125000057) translate(8.014322916666668 23.08376736111111)"/><use xlink:href="#Q" transform="matrix(1,0,0,1,3265,487.83203125000057) translate(6.484375 23.08376736111111)"/><use xlink:href="#M" transform="matrix(1,0,0,1,3345,487.83203125000057) translate(27.99045138888889 23.08376736111111)"/><use xlink:href="#S" transform="matrix(1,0,0,1,3425,487.83203125000057) translate(4.265407986111107 23.08376736111111)"/><use xlink:href="#T" transform="matrix(1,0,0,1,3105,527.8320312500006) translate(24.80034722222222 23.08376736111111)"/><use xlink:href="#P" transform="matrix(1,0,0,1,3185,527.8320312500006) translate(9.14279513888889 23.08376736111111)"/><use xlink:href="#R" transform="matrix(1,0,0,1,3265,527.8320312500006) translate(10.819227430555557 23.08376736111111)"/><use xlink:href="#S" transform="matrix(1,0,0,1,3345,527.8320312500006) translate(4.265407986111107 23.08376736111111)"/><use xlink:href="#M" transform="matrix(1,0,0,1,3425,527.8320312500006) translate(27.99045138888889 23.08376736111111)"/><path d="M3100 676.9h80v40h-80zM3180 676.9h80v40h-80zM3260 676.9h80v40h-80zM3340 676.9h80v40h-80zM3420 676.9h80v40h-80zM3100 716.9h80v40h-80zM3180 716.9h80v40h-80zM3260 716.9h80v40h-80zM3340 716.9h80v40h-80zM3420 716.9h80v40h-80zM3100 756.9h80v40h-80zM3180 756.9h80v40h-80zM3260 756.9h80v40h-80zM3340 756.9h80v40h-80zM3420 756.9h80v40h-80zM3100 796.9h80v40h-80zM3180 796.9h80v40h-80zM3260 796.9h80v40h-80zM3340 796.9h80v40h-80zM3420 796.9h80v40h-80zM3100 836.9h80v40h-80zM3180 836.9h80v40h-80zM3260 836.9h80v40h-80zM3340 836.9h80v40h-80zM3420 836.9h80v40h-80z" fill="#fff"/><path d="M3100 676.9v40M3100 676.9h80M3180 676.9v40M3180 676.9h80M3260 676.9v40M3260 676.9h80M3340 676.9v40M3340 676.9h80M3420 676.9v40M3500 676.9v40M3420 676.9h80M3100 716.9v40M3100 716.9h80M3180 716.9v40M3180 716.9h80M3260 716.9v40M3260 716.9h80M3340 716.9v40M3340 716.9h80M3420 716.9v40M3500 716.9v40M3420 716.9h80M3100 756.9v40M3100 756.9h80M3180 756.9v40M3180 756.9h80M3260 756.9v40M3260 756.9h80M3340 756.9v40M3340 756.9h80M3420 756.9v40M3500 756.9v40M3420 756.9h80M3100 796.9v40M3100 796.9h80M3180 796.9v40M3180 796.9h80M3260 796.9v40M3260 796.9h80M3340 796.9v40M3340 796.9h80M3420 796.9v40M3500 796.9v40M3420 796.9h80M3100 836.9v40M3100 836.9h80M3100 876.9h80M3180 836.9v40M3180 836.9h80M3180 876.9h80M3260 836.9v40M3260 836.9h80M3260 876.9h80M3340 836.9v40M3340 836.9h80M3340 876.9h80M3420 836.9v40M3500 836.9v40M3420 836.9h80M3420 876.9h80" stroke="#000" stroke-width="2" fill="none"/><use xlink:href="#I" transform="matrix(1,0,0,1,3185,681.8980208333334) translate(26.845703125 23.08376736111111)"/><use xlink:href="#J" transform="matrix(1,0,0,1,3265,681.8980208333334) translate(24.588758680555557 23.08376736111111)"/><use xlink:href="#K" transform="matrix(1,0,0,1,3345,681.8980208333334) translate(24.501953125 23.08376736111111)"/><use xlink:href="#L" transform="matrix(1,0,0,1,3425,681.8980208333334) translate(25.299479166666664 23.08376736111111)"/><use xlink:href="#I" transform="matrix(1,0,0,1,3105,721.8980208333334) translate(26.845703125 23.08376736111111)"/><use xlink:href="#M" transform="matrix(1,0,0,1,3185,721.8980208333334) translate(27.99045138888889 23.08376736111111)"/><use xlink:href="#U" transform="matrix(1,0,0,1,3265,721.8980208333334) translate(12.332899305555557 23.08376736111111)"/><use xlink:href="#V" transform="matrix(1,0,0,1,3345,721.8980208333334) translate(11.519097222222221 23.08376736111111)"/><use xlink:href="#W" transform="matrix(1,0,0,1,3425,721.8980208333334) translate(11.372612847222221 23.08376736111111)"/><use xlink:href="#J" transform="matrix(1,0,0,1,3105,761.8980208333334) translate(24.588758680555557 23.08376736111111)"/><use xlink:href="#U" transform="matrix(1,0,0,1,3185,761.8980208333334) translate(12.332899305555557 23.08376736111111)"/><use xlink:href="#M" transform="matrix(1,0,0,1,3265,761.8980208333334) translate(27.99045138888889 23.08376736111111)"/><use xlink:href="#X" transform="matrix(1,0,0,1,3345,761.8980208333334) translate(11.958550347222221 23.08376736111111)"/><use xlink:href="#Y" transform="matrix(1,0,0,1,3425,761.8980208333334) translate(11.378038194444443 23.08376736111111)"/><use xlink:href="#K" transform="matrix(1,0,0,1,3105,801.8980208333334) translate(24.501953125 23.08376736111111)"/><use xlink:href="#V" transform="matrix(1,0,0,1,3185,801.8980208333334) translate(11.519097222222221 23.08376736111111)"/><use xlink:href="#X" transform="matrix(1,0,0,1,3265,801.8980208333334) translate(11.958550347222221 23.08376736111111)"/><use xlink:href="#M" transform="matrix(1,0,0,1,3345,801.8980208333334) translate(27.99045138888889 23.08376736111111)"/><use xlink:href="#Z" transform="matrix(1,0,0,1,3425,801.8980208333334) translate(13.87912326388889 23.08376736111111)"/><use xlink:href="#T" transform="matrix(1,0,0,1,3105,841.8980208333334) translate(24.80034722222222 23.08376736111111)"/><use xlink:href="#W" transform="matrix(1,0,0,1,3185,841.8980208333334) translate(11.372612847222221 23.08376736111111)"/><use xlink:href="#Y" transform="matrix(1,0,0,1,3265,841.8980208333334) translate(11.378038194444443 23.08376736111111)"/><use xlink:href="#Z" transform="matrix(1,0,0,1,3345,841.8980208333334) translate(13.87912326388889 23.08376736111111)"/><use xlink:href="#M" transform="matrix(1,0,0,1,3425,841.8980208333334) translate(27.99045138888889 23.08376736111111)"/><path d="M3100 996.9h80v40h-80zM3180 996.9h80v40h-80zM3260 996.9h80v40h-80zM3340 996.9h80v40h-80zM3420 996.9h80v40h-80zM3100 1036.9h80v40h-80zM3180 1036.9h80v40h-80zM3260 1036.9h80v40h-80zM3340 1036.9h80v40h-80zM3420 1036.9h80v40h-80zM3100 1076.9h80v40h-80zM3180 1076.9h80v40h-80zM3260 1076.9h80v40h-80zM3340 1076.9h80v40h-80zM3420 1076.9h80v40h-80zM3100 1116.9h80v40h-80zM3180 1116.9h80v40h-80zM3260 1116.9h80v40h-80zM3340 1116.9h80v40h-80zM3420 1116.9h80v40h-80zM3100 1156.9h80v40h-80zM3180 1156.9h80v40h-80zM3260 1156.9h80v40h-80zM3340 1156.9h80v40h-80zM3420 1156.9h80v40h-80z" fill="#fff"/><path d="M3100 996.9v40M3100 996.9h80M3180 996.9v40M3180 996.9h80M3260 996.9v40M3260 996.9h80M3340 996.9v40M3340 996.9h80M3420 996.9v40M3500 996.9v40M3420 996.9h80M3100 1036.9v40M3100 1036.9h80M3180 1036.9v40M3180 1036.9h80M3260 1036.9v40M3260 1036.9h80M3340 1036.9v40M3340 1036.9h80M3420 1036.9v40M3500 1036.9v40M3420 1036.9h80M3100 1076.9v40M3100 1076.9h80M3180 1076.9v40M3180 1076.9h80M3260 1076.9v40M3260 1076.9h80M3340 1076.9v40M3340 1076.9h80M3420 1076.9v40M3500 1076.9v40M3420 1076.9h80M3100 1116.9v40M3100 1116.9h80M3180 1116.9v40M3180 1116.9h80M3260 1116.9v40M3260 1116.9h80M3340 1116.9v40M3340 1116.9h80M3420 1116.9v40M3500 1116.9v40M3420 1116.9h80M3100 1156.9v40M3100 1156.9h80M3100 1196.9h80M3180 1156.9v40M3180 1156.9h80M3180 1196.9h80M3260 1156.9v40M3260 1156.9h80M3260 1196.9h80M3340 1156.9v40M3340 1156.9h80M3340 1196.9h80M3420 1156.9v40M3500 1156.9v40M3420 1156.9h80M3420 1196.9h80" stroke="#000" stroke-width="2" fill="none"/><use xlink:href="#I" transform="matrix(1,0,0,1,3185,1001.8980208333332) translate(26.845703125 23.08376736111111)"/><use xlink:href="#J" transform="matrix(1,0,0,1,3265,1001.8980208333332) translate(24.588758680555557 23.08376736111111)"/><use xlink:href="#K" transform="matrix(1,0,0,1,3345,1001.8980208333332) translate(24.501953125 23.08376736111111)"/><use xlink:href="#L" transform="matrix(1,0,0,1,3425,1001.8980208333332) translate(25.299479166666664 23.08376736111111)"/><use xlink:href="#I" transform="matrix(1,0,0,1,3105,1041.8980208333332) translate(26.845703125 23.08376736111111)"/><use xlink:href="#M" transform="matrix(1,0,0,1,3185,1041.8980208333332) translate(27.99045138888889 23.08376736111111)"/><use xlink:href="#aa" transform="matrix(1,0,0,1,3265,1041.8980208333332) translate(11.567925347222221 23.08376736111111)"/><use xlink:href="#ab" transform="matrix(1,0,0,1,3345,1041.8980208333332) translate(4.791666666666671 23.08376736111111)"/><use xlink:href="#ac" transform="matrix(1,0,0,1,3425,1041.8980208333332) translate(14.909939236111114 23.08376736111111)"/><use xlink:href="#J" transform="matrix(1,0,0,1,3105,1081.8980208333332) translate(24.588758680555557 23.08376736111111)"/><use xlink:href="#aa" transform="matrix(1,0,0,1,3185,1081.8980208333332) translate(11.567925347222221 23.08376736111111)"/><use xlink:href="#M" transform="matrix(1,0,0,1,3265,1081.8980208333332) translate(27.99045138888889 23.08376736111111)"/><use xlink:href="#ad" transform="matrix(1,0,0,1,3345,1081.8980208333332) translate(4.124348958333336 23.08376736111111)"/><use xlink:href="#ae" transform="matrix(1,0,0,1,3425,1081.8980208333332) translate(12.110460069444443 23.08376736111111)"/><use xlink:href="#K" transform="matrix(1,0,0,1,3105,1121.8980208333332) translate(24.501953125 23.08376736111111)"/><use xlink:href="#ab" transform="matrix(1,0,0,1,3185,1121.8980208333332) translate(4.791666666666671 23.08376736111111)"/><use xlink:href="#ad" transform="matrix(1,0,0,1,3265,1121.8980208333332) translate(4.124348958333336 23.08376736111111)"/><use xlink:href="#M" transform="matrix(1,0,0,1,3345,1121.8980208333332) translate(27.99045138888889 23.08376736111111)"/><use xlink:href="#af" transform="matrix(1,0,0,1,3425,1121.8980208333332) translate(7.965494791666664 23.08376736111111)"/><use xlink:href="#T" transform="matrix(1,0,0,1,3105,1161.8980208333332) translate(24.80034722222222 23.08376736111111)"/><use xlink:href="#ac" transform="matrix(1,0,0,1,3185,1161.8980208333332) translate(14.909939236111114 23.08376736111111)"/><use xlink:href="#ae" transform="matrix(1,0,0,1,3265,1161.8980208333332) translate(12.110460069444443 23.08376736111111)"/><use xlink:href="#af" transform="matrix(1,0,0,1,3345,1161.8980208333332) translate(7.965494791666664 23.08376736111111)"/><use xlink:href="#M" transform="matrix(1,0,0,1,3425,1161.8980208333332) translate(27.99045138888889 23.08376736111111)"/><path d="M3100 1278.16h80v40h-80zM3180 1278.16h80v40h-80zM3260 1278.16h80v40h-80zM3340 1278.16h80v40h-80zM3420 1278.16h80v40h-80zM3100 1318.16h80v40h-80zM3180 1318.16h80v40h-80zM3260 1318.16h80v40h-80zM3340 1318.16h80v40h-80zM3420 1318.16h80v40h-80zM3100 1358.16h80v40h-80zM3180 1358.16h80v40h-80zM3260 1358.16h80v40h-80zM3340 1358.16h80v40h-80zM3420 1358.16h80v40h-80zM3100 1398.16h80v40h-80zM3180 1398.16h80v40h-80zM3260 1398.16h80v40h-80zM3340 1398.16h80v40h-80zM3420 1398.16h80v40h-80zM3100 1438.16h80v40h-80zM3180 1438.16h80v40h-80zM3260 1438.16h80v40h-80zM3340 1438.16h80v40h-80zM3420 1438.16h80v40h-80z" fill="#fff"/><path d="M3100 1278.16v40M3100 1278.16h80M3180 1278.16v40M3180 1278.16h80M3260 1278.16v40M3260 1278.16h80M3340 1278.16v40M3340 1278.16h80M3420 1278.16v40M3500 1278.16v40M3420 1278.16h80M3100 1318.16v40M3100 1318.16h80M3180 1318.16v40M3180 1318.16h80M3260 1318.16v40M3260 1318.16h80M3340 1318.16v40M3340 1318.16h80M3420 1318.16v40M3500 1318.16v40M3420 1318.16h80M3100 1358.16v40M3100 1358.16h80M3180 1358.16v40M3180 1358.16h80M3260 1358.16v40M3260 1358.16h80M3340 1358.16v40M3340 1358.16h80M3420 1358.16v40M3500 1358.16v40M3420 1358.16h80M3100 1398.16v40M3100 1398.16h80M3180 1398.16v40M3180 1398.16h80M3260 1398.16v40M3260 1398.16h80M3340 1398.16v40M3340 1398.16h80M3420 1398.16v40M3500 1398.16v40M3420 1398.16h80M3100 1438.16v40M3100 1438.16h80M3100 1478.16h80M3180 1438.16v40M3180 1438.16h80M3180 1478.16h80M3260 1438.16v40M3260 1438.16h80M3260 1478.16h80M3340 1438.16v40M3340 1438.16h80M3340 1478.16h80M3420 1438.16v40M3500 1438.16v40M3420 1438.16h80M3420 1478.16h80" stroke="#000" stroke-width="2" fill="none"/><use xlink:href="#I" transform="matrix(1,0,0,1,3185,1283.165364583334) translate(26.845703125 23.08376736111111)"/><use xlink:href="#J" transform="matrix(1,0,0,1,3265,1283.165364583334) translate(24.588758680555557 23.08376736111111)"/><use xlink:href="#K" transform="matrix(1,0,0,1,3345,1283.165364583334) translate(24.501953125 23.08376736111111)"/><use xlink:href="#L" transform="matrix(1,0,0,1,3425,1283.165364583334) translate(25.299479166666664 23.08376736111111)"/><use xlink:href="#I" transform="matrix(1,0,0,1,3105,1323.165364583334) translate(26.845703125 23.08376736111111)"/><use xlink:href="#M" transform="matrix(1,0,0,1,3185,1323.165364583334) translate(27.99045138888889 23.08376736111111)"/><use xlink:href="#ag" transform="matrix(1,0,0,1,3265,1323.165364583334) translate(11.3671875 23.08376736111111)"/><use xlink:href="#ah" transform="matrix(1,0,0,1,3345,1323.165364583334) translate(13.499348958333336 23.08376736111111)"/><use xlink:href="#W" transform="matrix(1,0,0,1,3425,1323.165364583334) translate(11.372612847222221 23.08376736111111)"/><use xlink:href="#J" transform="matrix(1,0,0,1,3105,1363.165364583334) translate(24.588758680555557 23.08376736111111)"/><use xlink:href="#ag" transform="matrix(1,0,0,1,3185,1363.165364583334) translate(11.3671875 23.08376736111111)"/><use xlink:href="#M" transform="matrix(1,0,0,1,3265,1363.165364583334) translate(27.99045138888889 23.08376736111111)"/><use xlink:href="#ai" transform="matrix(1,0,0,1,3345,1363.165364583334) translate(13.293185763888893 23.08376736111111)"/><use xlink:href="#aj" transform="matrix(1,0,0,1,3425,1363.165364583334) translate(13.776041666666668 23.08376736111111)"/><use xlink:href="#K" transform="matrix(1,0,0,1,3105,1403.165364583334) translate(24.501953125 23.08376736111111)"/><use xlink:href="#ah" transform="matrix(1,0,0,1,3185,1403.165364583334) translate(13.499348958333336 23.08376736111111)"/><use xlink:href="#ai" transform="matrix(1,0,0,1,3265,1403.165364583334) translate(13.293185763888893 23.08376736111111)"/><use xlink:href="#M" transform="matrix(1,0,0,1,3345,1403.165364583334) translate(27.99045138888889 23.08376736111111)"/><use xlink:href="#ak" transform="matrix(1,0,0,1,3425,1403.165364583334) translate(12.083333333333336 23.08376736111111)"/><use xlink:href="#T" transform="matrix(1,0,0,1,3105,1443.165364583334) translate(24.80034722222222 23.08376736111111)"/><use xlink:href="#W" transform="matrix(1,0,0,1,3185,1443.165364583334) translate(11.372612847222221 23.08376736111111)"/><use xlink:href="#aj" transform="matrix(1,0,0,1,3265,1443.165364583334) translate(13.776041666666668 23.08376736111111)"/><use xlink:href="#ak" transform="matrix(1,0,0,1,3345,1443.165364583334) translate(12.083333333333336 23.08376736111111)"/><use xlink:href="#M" transform="matrix(1,0,0,1,3425,1443.165364583334) translate(27.99045138888889 23.08376736111111)"/><path d="M4240 362.83h80v40h-80zM4320 362.83h84.9v40H4320zM4404.9 362.83h93.16v40h-93.16zM4498.06 362.83h86.97v40h-86.97z" fill="#fff"/><path d="M4585.03 362.83h85.38v40h-85.37zM4240 402.83h80v40h-80zM4320 402.83h84.9v40H4320zM4404.9 402.83h93.16v40h-93.16zM4498.06 402.83h86.97v40h-86.97z" fill="#fff"/><path d="M4585.03 402.83h85.38v40h-85.37zM4240 442.83h80v37h-80zM4320 442.83h84.9v37H4320zM4404.9 442.83h93.16v37h-93.16zM4498.06 442.83h86.97v37h-86.97z" fill="#fff"/><path d="M4585.03 442.83h85.38v37h-85.37zM4240 479.83h80v40h-80zM4320 479.83h84.9v40H4320zM4404.9 479.83h93.16v40h-93.16zM4498.06 479.83h86.97v40h-86.97z" fill="#fff"/><path d="M4585.03 479.83h85.38v40h-85.37zM4240 519.83h80v40h-80zM4320 519.83h84.9v40H4320zM4404.9 519.83h93.16v40h-93.16zM4498.06 519.83h86.97v40h-86.97z" fill="#fff"/><path d="M4585.03 519.83h85.38v40h-85.37z" fill="#fff"/><path d="M4240 362.83v40M4240 362.83h80M4320 362.83v40M4320 362.83h84.9M4404.9 362.83v40M4404.9 362.83h93.16M4498.06 362.83v40M4498.06 362.83h86.97M4585.03 362.83v40M4670.4 362.83v40M4585.03 362.83h85.38M4240 402.83v40M4240 402.83h80M4320 402.83v40M4320 402.83h84.9M4404.9 402.83v40M4404.9 402.83h93.16M4498.06 402.83v40M4498.06 402.83h86.97M4585.03 402.83v40M4670.4 402.83v40M4585.03 402.83h85.38M4240 442.83v37M4240 442.83h80M4320 442.83v37M4320 442.83h84.9M4404.9 442.83v37M4404.9 442.83h93.16M4498.06 442.83v37M4498.06 442.83h86.97M4585.03 442.83v37M4670.4 442.83v37M4585.03 442.83h85.38M4240 479.83v40M4240 479.83h80M4320 479.83v40M4320 479.83h84.9M4404.9 479.83v40M4404.9 479.83h93.16M4498.06 479.83v40M4498.06 479.83h86.97M4585.03 479.83v40M4670.4 479.83v40M4585.03 479.83h85.38M4240 519.83v40M4240 519.83h80M4240 559.83h80M4320 519.83v40M4320 519.83h84.9M4320 559.83h84.9M4404.9 519.83v40M4404.9 519.83h93.16M4404.9 559.83h93.16M4498.06 519.83v40M4498.06 519.83h86.97M4498.06 559.83h86.97M4585.03 519.83v40M4670.4 519.83v40M4585.03 519.83h85.38M4585.03 559.83h85.38" stroke="#000" stroke-width="2" fill="none"/><g><use xlink:href="#al" transform="matrix(1,0,0,1,4325,367.83203125000057) translate(9.944661458333336 23.08376736111111)"/></g><g><use xlink:href="#am" transform="matrix(1,0,0,1,4409.90234375,367.83203125000057) translate(12.187717013888893 23.08376736111111)"/></g><g><use xlink:href="#an" transform="matrix(1,0,0,1,4503.062065972223,367.83203125000057) translate(8.600911458333336 23.08376736111111)"/></g><g><use xlink:href="#ao" transform="matrix(1,0,0,1,4590.026041666667,367.83203125000057) translate(8.545789930555557 23.08376736111111)"/></g><g><use xlink:href="#al" transform="matrix(1,0,0,1,4245,407.83203125000057) translate(7.444661458333336 23.08376736111111)"/></g><g><use xlink:href="#M" transform="matrix(1,0,0,1,4325,407.83203125000057) translate(30.49045138888889 23.08376736111111)"/></g><g><use xlink:href="#ap" transform="matrix(1,0,0,1,4409.90234375,407.83203125000057) translate(0.42013888888888573 23.08376736111111)"/></g><g><use xlink:href="#aq" transform="matrix(1,0,0,1,4503.062065972223,407.83203125000057) translate(0.018012152777778567 23.08376736111111)"/></g><g><use xlink:href="#ar" transform="matrix(1,0,0,1,4590.026041666667,407.83203125000057) translate(0.5488281250000071 23.08376736111111)"/></g><g><use xlink:href="#am" transform="matrix(1,0,0,1,4245,447.83203125000057) translate(5.187717013888893 21.58376736111111)"/></g><g><use xlink:href="#as" transform="matrix(1,0,0,1,4325,447.83203125000057) translate(0.439453125 21.58376736111111)"/></g><g><use xlink:href="#M" transform="matrix(1,0,0,1,4409.90234375,447.83203125000057) translate(34.990451388888886 21.58376736111111)"/></g><g><use xlink:href="#at" transform="matrix(1,0,0,1,4503.062065972223,447.83203125000057) translate(4.50477430555555 21.58376736111111)"/></g><g><use xlink:href="#au" transform="matrix(1,0,0,1,4590.026041666667,447.83203125000057) translate(9.609157986111114 21.58376736111111)"/></g><g><use xlink:href="#an" transform="matrix(1,0,0,1,4245,484.83203125000057) translate(5.100911458333336 23.08376736111111)"/></g><g><use xlink:href="#av" transform="matrix(1,0,0,1,4325,484.83203125000057) translate(5.734592013888886 23.08376736111111)"/></g><g><use xlink:href="#at" transform="matrix(1,0,0,1,4409.90234375,484.83203125000057) translate(8.00477430555555 23.08376736111111)"/></g><g><use xlink:href="#M" transform="matrix(1,0,0,1,4503.062065972223,484.83203125000057) translate(31.49045138888889 23.08376736111111)"/></g><g><use xlink:href="#aw" transform="matrix(1,0,0,1,4590.026041666667,484.83203125000057) translate(0.31011284722222143 23.08376736111111)"/></g><g><use xlink:href="#ao" transform="matrix(1,0,0,1,4245,524.8320312500006) translate(5.545789930555557 23.08376736111111)"/></g><g><use xlink:href="#ar" transform="matrix(1,0,0,1,4325,524.8320312500006) translate(0.048828125000007105 23.08376736111111)"/></g><g><use xlink:href="#au" transform="matrix(1,0,0,1,4409.90234375,524.8320312500006) translate(13.609157986111114 23.08376736111111)"/></g><g><use xlink:href="#aw" transform="matrix(1,0,0,1,4503.062065972223,524.8320312500006) translate(0.8101128472222214 23.08376736111111)"/></g><g><use xlink:href="#M" transform="matrix(1,0,0,1,4590.026041666667,524.8320312500006) translate(30.99045138888889 23.08376736111111)"/></g><path d="M4240 331.93a6 6 0 0 1 6-6h189.97a6 6 0 0 1 6 6v24.9a6 6 0 0 1-6 6H4246a6 6 0 0 1-6-6z" fill="none"/><g><use xlink:href="#F" transform="matrix(1,0,0,1,4245,330.9340104166672) translate(0 21.58376736111111)"/><use xlink:href="#ax" transform="matrix(1,0,0,1,4245,330.9340104166672) translate(81.10894097222223 21.58376736111111)"/><use xlink:href="#ay" transform="matrix(1,0,0,1,4245,330.9340104166672) translate(108.90842013888889 21.58376736111111)"/></g><path d="M3748.45 384.96a6 6 0 0 1 6-6h231.1a6 6 0 0 1 6 6v135.7a6 6 0 0 1-6 6h-231.1a6 6 0 0 1-6-6z" stroke="#000" stroke-width="2" fill="#fff"/><g><use xlink:href="#az" transform="matrix(1,0,0,1,3760.4490104166666,390.96484375000057) translate(39.55729166666666 25.40277777777778)"/><use xlink:href="#aA" transform="matrix(1,0,0,1,3760.4490104166666,390.96484375000057) translate(80.06293402777777 57.66840277777778)"/><use xlink:href="#aB" transform="matrix(1,0,0,1,3760.4490104166666,390.96484375000057) translate(80.94184027777777 89.93402777777777)"/><use xlink:href="#aC" transform="matrix(1,0,0,1,3760.4490104166666,390.96484375000057) translate(86.416015625 122.19965277777777)"/></g><path d="M3748.45 331.93a6 6 0 0 1 6-6h231.1a6 6 0 0 1 6 6v24.9a6 6 0 0 1-6 6h-231.1a6 6 0 0 1-6-6z" fill="none"/><g><use xlink:href="#F" transform="matrix(1,0,0,1,3753.4490104166666,330.9340104166672) translate(0 21.58376736111111)"/><use xlink:href="#l" transform="matrix(1,0,0,1,3753.4490104166666,330.9340104166672) translate(81.10894097222223 21.58376736111111)"/><use xlink:href="#H" transform="matrix(1,0,0,1,3753.4490104166666,330.9340104166672) translate(116.62326388888889 21.58376736111111)"/><use xlink:href="#B" transform="matrix(1,0,0,1,3753.4490104166666,330.9340104166672) translate(168.9453125 21.58376736111111)"/></g><path d="M3748.45 642.2a6 6 0 0 1 6-6h231.1a6 6 0 0 1 6 6v24.9a6 6 0 0 1-6 6h-231.1a6 6 0 0 1-6-6z" fill="none"/><g><use xlink:href="#F" transform="matrix(1,0,0,1,3753.4490104166666,641.2081250000001) translate(0 21.58376736111111)"/><use xlink:href="#l" transform="matrix(1,0,0,1,3753.4490104166666,641.2081250000001) translate(81.10894097222223 21.58376736111111)"/><use xlink:href="#H" transform="matrix(1,0,0,1,3753.4490104166666,641.2081250000001) translate(116.62326388888889 21.58376736111111)"/><use xlink:href="#C" transform="matrix(1,0,0,1,3753.4490104166666,641.2081250000001) translate(168.9453125 21.58376736111111)"/></g><path d="M3748.45 966a6 6 0 0 1 6-6h231.1a6 6 0 0 1 6 6v24.9a6 6 0 0 1-6 6h-231.1a6 6 0 0 1-6-6z" fill="none"/><g><use xlink:href="#F" transform="matrix(1,0,0,1,3753.4490104166666,965) translate(0 21.58376736111111)"/><use xlink:href="#l" transform="matrix(1,0,0,1,3753.4490104166666,965) translate(81.10894097222223 21.58376736111111)"/><use xlink:href="#H" transform="matrix(1,0,0,1,3753.4490104166666,965) translate(116.62326388888889 21.58376736111111)"/><use xlink:href="#D" transform="matrix(1,0,0,1,3753.4490104166666,965) translate(168.9453125 21.58376736111111)"/></g><path d="M3748.45 1247.27a6 6 0 0 1 6-6h231.1a6 6 0 0 1 6 6v24.9a6 6 0 0 1-6 6h-231.1a6 6 0 0 1-6-6z" fill="none"/><g><use xlink:href="#F" transform="matrix(1,0,0,1,3753.4490104166666,1246.2673437500007) translate(0 21.58376736111111)"/><use xlink:href="#l" transform="matrix(1,0,0,1,3753.4490104166666,1246.2673437500007) translate(81.10894097222223 21.58376736111111)"/><use xlink:href="#H" transform="matrix(1,0,0,1,3753.4490104166666,1246.2673437500007) translate(116.62326388888889 21.58376736111111)"/><use xlink:href="#E" transform="matrix(1,0,0,1,3753.4490104166666,1246.2673437500007) translate(168.9453125 21.58376736111111)"/></g><path d="M3748.45 679.1a6 6 0 0 1 6-6h231.1a6 6 0 0 1 6 6v135.7a6 6 0 0 1-6 6h-231.1a6 6 0 0 1-6-6z" stroke="#000" stroke-width="2" fill="#fff"/><g><use xlink:href="#aD" transform="matrix(1,0,0,1,3760.449010416666,685.1061458333334) translate(43.28993055555556 25.40277777777778)"/><use xlink:href="#aE" transform="matrix(1,0,0,1,3760.449010416666,685.1061458333334) translate(83.60026041666667 57.66840277777778)"/><use xlink:href="#aF" transform="matrix(1,0,0,1,3760.449010416666,685.1061458333334) translate(83.42122395833333 89.93402777777777)"/><use xlink:href="#aC" transform="matrix(1,0,0,1,3760.449010416666,685.1061458333334) translate(86.416015625 122.19965277777777)"/></g><path d="M3748.45 1002.9a6 6 0 0 1 6-6h231.1a6 6 0 0 1 6 6v135.68a6 6 0 0 1-6 6h-231.1a6 6 0 0 1-6-6z" stroke="#000" stroke-width="2" fill="#fff"/><g><use xlink:href="#aG" transform="matrix(1,0,0,1,3760.449010416666,1008.8980208333332) translate(42.06380208333333 25.40277777777778)"/><use xlink:href="#aH" transform="matrix(1,0,0,1,3760.449010416666,1008.8980208333332) translate(76.84027777777777 57.66840277777778)"/><use xlink:href="#aI" transform="matrix(1,0,0,1,3760.449010416666,1008.8980208333332) translate(86.95855034722223 89.93402777777777)"/><use xlink:href="#aC" transform="matrix(1,0,0,1,3760.449010416666,1008.8980208333332) translate(86.416015625 122.19965277777777)"/></g><path d="M3748.45 1284.16a6 6 0 0 1 6-6h231.1a6 6 0 0 1 6 6v135.7a6 6 0 0 1-6 6h-231.1a6 6 0 0 1-6-6z" stroke="#000" stroke-width="2" fill="#fff"/><g><use xlink:href="#aJ" transform="matrix(1,0,0,1,3760.449010416667,1290.165364583334) translate(43.029513888888886 25.40277777777778)"/><use xlink:href="#aK" transform="matrix(1,0,0,1,3760.449010416667,1290.165364583334) translate(85.29839409722223 57.66840277777778)"/><use xlink:href="#aF" transform="matrix(1,0,0,1,3760.449010416667,1290.165364583334) translate(83.42122395833333 89.93402777777777)"/><use xlink:href="#aC" transform="matrix(1,0,0,1,3760.449010416667,1290.165364583334) translate(86.416015625 122.19965277777777)"/></g><defs><path d="M657 26c-323 0-524-166-541-416h195c15 169 171 246 346 246 202 0 356-106 356-265 5-203-294-238-475-293-239-73-380-191-380-389 0-252 224-419 512-419 294 0 499 171 508 396H992c-17-145-151-228-328-228-193 0-321 102-321 242 0 156 175 211 284 241l149 41c160 44 422 134 422 412 0 244-197 432-541 432" id="aL"/><path d="M598-1118v154H368v674c0 100 37 144 132 144 23 0 62-6 92-12L629-6c-37 13-88 20-134 20-193 0-307-107-307-290v-688H20v-154h168v-266h180v266h230" id="aM"/><path d="M628 24c-324 0-524-230-524-574 0-343 198-582 503-582 237 0 487 146 487 559v75H286c9 234 145 362 343 362 132 0 231-58 273-172l174 48C1024-91 857 24 628 24zM287-650h624c-17-190-120-322-304-322-192 0-309 151-320 322" id="aN"/><path d="M158 418v-1536h174v179h20c37-59 106-193 324-193 279 0 474 222 474 576 0 356-194 580-473 580-213 0-288-135-325-197h-14v591H158zm492-555c209 0 317-186 317-421 0-232-105-413-317-413-206 0-314 166-314 413 0 249 111 421 314 421" id="aO"/><g id="a"><use transform="matrix(0.010850694444444444,0,0,0.010850694444444444,0,0)" xlink:href="#aL"/><use transform="matrix(0.010850694444444444,0,0,0.010850694444444444,14.2578125,0)" xlink:href="#aM"/><use transform="matrix(0.010850694444444444,0,0,0.010850694444444444,21.31076388888889,0)" xlink:href="#aN"/><use transform="matrix(0.010850694444444444,0,0,0.010850694444444444,34.26649305555556,0)" xlink:href="#aO"/></g><path d="M653-1490V0H466v-1314h-10L96-1047v-204l324-239h233" id="aP"/><path d="M295 13c-75 0-135-60-135-135s60-135 135-135 135 60 135 135S370 13 295 13zm0-809c-75 0-135-60-135-135s60-135 135-135 135 60 135 135-60 135-135 135" id="aQ"/><g id="b"><use transform="matrix(0.010850694444444444,0,0,0.010850694444444444,0,0)" xlink:href="#aP"/><use transform="matrix(0.010850694444444444,0,0,0.010850694444444444,9.038628472222221,0)" xlink:href="#aQ"/></g><path d="M613 24c-304 0-509-231-509-576 0-350 205-580 509-580 305 0 511 230 511 580 0 345-206 576-511 576zm0-161c226 0 329-195 329-415 0-222-103-419-329-419-223 0-326 196-326 419 0 220 103 415 326 415" id="aR"/><path d="M158 0v-1118h174v172h12c41-113 157-188 290-188 26 0 70 2 91 3v181c-11-2-60-10-108-10-161 0-279 109-279 260V0H158" id="aS"/><g id="c"><use transform="matrix(0.010850694444444444,0,0,0.010850694444444444,0,0)" xlink:href="#aL"/><use transform="matrix(0.010850694444444444,0,0,0.010850694444444444,14.2578125,0)" xlink:href="#aR"/><use transform="matrix(0.010850694444444444,0,0,0.010850694444444444,27.58246527777778,0)" xlink:href="#aS"/><use transform="matrix(0.010850694444444444,0,0,0.010850694444444444,36.295572916666664,0)" xlink:href="#aM"/></g><path d="M158 0v-1118h180V0H158zm91-1301c-68 0-125-53-125-119s57-119 125-119c69 0 126 53 126 119s-57 119-126 119" id="aT"/><path d="M158 0v-1118h175l1 205c55-151 181-225 313-225 147 0 245 90 285 228 53-141 190-228 352-228 194 0 352 125 352 384V0h-181v-749c0-161-105-225-225-225-151 0-243 103-243 244V0H807v-767c0-124-93-207-219-207-131 0-250 92-250 270V0H158" id="aU"/><g id="d"><use transform="matrix(0.010850694444444444,0,0,0.010850694444444444,0,0)" xlink:href="#aM"/><use transform="matrix(0.010850694444444444,0,0,0.010850694444444444,7.269965277777778,0)" xlink:href="#aT"/><use transform="matrix(0.010850694444444444,0,0,0.010850694444444444,12.651909722222221,0)" xlink:href="#aU"/><use transform="matrix(0.010850694444444444,0,0,0.010850694444444444,32.11805555555556,0)" xlink:href="#aN"/></g><path d="M538 24C308 24 148-78 108-271l171-41c32 123 123 178 257 178 156 0 256-77 256-169 0-77-54-128-164-154l-186-44c-203-48-300-148-300-305 0-192 176-326 414-326 230 0 351 112 402 269l-163 42c-31-80-94-158-238-158-133 0-233 69-233 162 0 83 57 129 188 160l169 40c203 48 298 149 298 302 0 196-179 339-441 339" id="aV"/><g id="e"><use transform="matrix(0.010850694444444444,0,0,0.010850694444444444,0,0)" xlink:href="#aV"/><use transform="matrix(0.010850694444444444,0,0,0.010850694444444444,11.729600694444445,0)" xlink:href="#aN"/><use transform="matrix(0.010850694444444444,0,0,0.010850694444444444,24.68532986111111,0)" xlink:href="#aS"/><use transform="matrix(0.010850694444444444,0,0,0.010850694444444444,33.3984375,0)" xlink:href="#aT"/><use transform="matrix(0.010850694444444444,0,0,0.010850694444444444,38.78038194444444,0)" xlink:href="#aN"/><use transform="matrix(0.010850694444444444,0,0,0.010850694444444444,51.73611111111111,0)" xlink:href="#aV"/></g><path d="M677 24c-213 0-288-135-325-197h-20V0H158v-1490h180v551h14c37-59 106-193 324-193 279 0 474 222 474 576 0 356-194 580-473 580zm-27-161c209 0 317-186 317-421 0-232-105-413-317-413-206 0-314 166-314 413 0 249 111 421 314 421" id="aW"/><path d="M140 405l46-156c120 36 205 19 263-150l32-93L54-1118h197c107 313 237 620 324 950 87-331 219-637 326-950h196L606 167c-68 178-176 259-334 259-64 0-113-12-132-21" id="aX"/><g id="f"><use transform="matrix(0.010850694444444444,0,0,0.010850694444444444,0,0)" xlink:href="#aW"/><use transform="matrix(0.010850694444444444,0,0,0.010850694444444444,13.172743055555552,0)" xlink:href="#aX"/></g><path d="M471 26C259 26 90-98 90-318c0-256 228-303 435-329 202-27 287-16 287-108 0-139-79-219-234-219-161 0-248 86-283 164l-173-57c86-203 278-265 451-265 150 0 419 46 419 395V0H815v-152h-12C765-73 660 26 471 26zm31-159c199 0 310-134 310-271v-155c-30 35-226 55-295 64-131 17-246 59-246 186 0 116 97 176 231 176" id="aY"/><g id="g"><use transform="matrix(0.010850694444444444,0,0,0.010850694444444444,0,0)" xlink:href="#aX"/><use transform="matrix(0.010850694444444444,0,0,0.010850694444444444,12.055121527777777,0)" xlink:href="#aN"/><use transform="matrix(0.010850694444444444,0,0,0.010850694444444444,25.227864583333332,0)" xlink:href="#aY"/><use transform="matrix(0.010850694444444444,0,0,0.010850694444444444,37.70616319444444,0)" xlink:href="#aS"/></g><path d="M154 0v-137l495-537c165-179 249-281 249-418 0-156-121-253-280-253-170 0-278 110-278 278H158c0-264 200-443 465-443 266 0 455 183 455 416 0 161-73 288-336 568L416-179v12h687V0H154" id="aZ"/><g id="h"><use transform="matrix(0.010850694444444444,0,0,0.010850694444444444,0,0)" xlink:href="#aZ"/><use transform="matrix(0.010850694444444444,0,0,0.010850694444444444,13.55251736111111,0)" xlink:href="#aQ"/></g><path d="M783 20c-382 0-661-292-661-764 0-473 279-766 661-766 302 0 548 182 601 489h-190c-42-204-217-313-411-313-268 0-476 208-476 590 0 381 209 588 476 588 195 0 369-110 411-313h190c-52 303-296 489-601 489" id="ba"/><g id="i"><use transform="matrix(0.010850694444444444,0,0,0.010850694444444444,0,0)" xlink:href="#ba"/><use transform="matrix(0.010850694444444444,0,0,0.010850694444444444,16.23263888888889,0)" xlink:href="#aS"/><use transform="matrix(0.010850694444444444,0,0,0.010850694444444444,24.229600694444443,0)" xlink:href="#aN"/><use transform="matrix(0.010850694444444444,0,0,0.010850694444444444,37.40234375,0)" xlink:href="#aY"/><use transform="matrix(0.010850694444444444,0,0,0.010850694444444444,49.88064236111111,0)" xlink:href="#aM"/><use transform="matrix(0.010850694444444444,0,0,0.010850694444444444,56.93359375000001,0)" xlink:href="#aN"/></g><path d="M577 24c-279 0-473-224-473-580 0-354 195-576 474-576 218 0 287 134 324 193h14v-551h180V0H922v-173h-20C865-111 790 24 577 24zm27-161c203 0 314-172 314-421 0-247-108-413-314-413-212 0-317 181-317 413 0 235 108 421 317 421" id="bb"/><path d="M338-1490V0H158v-1490h180" id="bc"/><g id="j"><use transform="matrix(0.010850694444444444,0,0,0.010850694444444444,0,0)" xlink:href="#bb"/><use transform="matrix(0.010850694444444444,0,0,0.010850694444444444,13.606770833333332,0)" xlink:href="#aT"/><use transform="matrix(0.010850694444444444,0,0,0.010850694444444444,18.98871527777778,0)" xlink:href="#aV"/><use transform="matrix(0.010850694444444444,0,0,0.010850694444444444,30.71831597222222,0)" xlink:href="#aV"/><use transform="matrix(0.010850694444444444,0,0,0.010850694444444444,42.447916666666664,0)" xlink:href="#aT"/><use transform="matrix(0.010850694444444444,0,0,0.010850694444444444,47.82986111111111,0)" xlink:href="#aU"/><use transform="matrix(0.010850694444444444,0,0,0.010850694444444444,67.29600694444444,0)" xlink:href="#aT"/><use transform="matrix(0.010850694444444444,0,0,0.010850694444444444,72.67795138888889,0)" xlink:href="#bc"/><use transform="matrix(0.010850694444444444,0,0,0.010850694444444444,78.05989583333333,0)" xlink:href="#aY"/><use transform="matrix(0.010850694444444444,0,0,0.010850694444444444,90.53819444444444,0)" xlink:href="#aS"/><use transform="matrix(0.010850694444444444,0,0,0.010850694444444444,99.25130208333334,0)" xlink:href="#aT"/><use transform="matrix(0.010850694444444444,0,0,0.010850694444444444,104.6332465277778,0)" xlink:href="#aM"/><use transform="matrix(0.010850694444444444,0,0,0.010850694444444444,112.33723958333333,0)" xlink:href="#aX"/></g><path d="M65 0l393-574-370-544h210c88 136 192 297 267 435 67-142 176-302 264-435h206L661-564 1053 0H844c-94-144-206-310-287-458C484-308 366-142 273 0H65" id="bd"/><g id="k"><use transform="matrix(0.010850694444444444,0,0,0.010850694444444444,0,0)" xlink:href="#aU"/><use transform="matrix(0.010850694444444444,0,0,0.010850694444444444,19.466145833333332,0)" xlink:href="#aY"/><use transform="matrix(0.010850694444444444,0,0,0.010850694444444444,31.944444444444443,0)" xlink:href="#aM"/><use transform="matrix(0.010850694444444444,0,0,0.010850694444444444,39.21440972222222,0)" xlink:href="#aS"/><use transform="matrix(0.010850694444444444,0,0,0.010850694444444444,47.92751736111111,0)" xlink:href="#aT"/><use transform="matrix(0.010850694444444444,0,0,0.010850694444444444,53.30946180555556,0)" xlink:href="#bd"/></g><path d="M678-1118v154H420V0H240v-964H20v-154h220v-149c0-194 155-293 318-293 85 0 141 18 168 30l-50 154c-19-6-47-17-97-17-111 0-159 58-159 166v109h258" id="be"/><g id="l"><use transform="matrix(0.010850694444444444,0,0,0.010850694444444444,0,0)" xlink:href="#be"/><use transform="matrix(0.010850694444444444,0,0,0.010850694444444444,7.573784722222222,0)" xlink:href="#aR"/><use transform="matrix(0.010850694444444444,0,0,0.010850694444444444,20.8984375,0)" xlink:href="#aS"/></g><path d="M613 24c-304 0-509-231-509-576 0-350 205-580 509-580 216 0 392 114 453 309l-173 49c-33-115-133-197-280-197-223 0-326 196-326 419 0 220 103 415 326 415 150 0 252-85 285-206l172 49C1010-95 832 24 613 24" id="bf"/><path d="M338-670V0H158v-1490h180v566c73-149 190-208 336-208 226 0 379 139 379 422V0H872v-695c0-172-96-275-252-275-161 0-282 109-282 300" id="bg"/><g id="m"><use transform="matrix(0.010850694444444444,0,0,0.010850694444444444,0,0)" xlink:href="#aN"/><use transform="matrix(0.010850694444444444,0,0,0.010850694444444444,13.172743055555555,0)" xlink:href="#aY"/><use transform="matrix(0.010850694444444444,0,0,0.010850694444444444,25.651041666666664,0)" xlink:href="#bf"/><use transform="matrix(0.010850694444444444,0,0,0.010850694444444444,38.346354166666664,0)" xlink:href="#bg"/></g><path d="M635 20c-292 0-500-160-510-396h192c11 142 145 229 315 229 187 0 323-105 323-260 0-161-125-274-346-274H488v-165h121c174 0 294-100 294-254 0-148-104-245-266-245-152 0-291 85-297 230H157c8-234 222-395 484-395 278 0 448 188 448 400 0 168-95 291-247 336v12c190 31 301 169 301 357 0 244-216 425-508 425" id="bh"/><g id="n"><use transform="matrix(0.010850694444444444,0,0,0.010850694444444444,0,0)" xlink:href="#bh"/><use transform="matrix(0.010850694444444444,0,0,0.010850694444444444,13.726128472222221,0)" xlink:href="#aQ"/></g><path d="M180 0v-1490h901v168H370v510h643v168H370V0H180" id="bi"/><path d="M338-670V0H158v-1118h173l1 207c72-158 192-221 342-221 226 0 378 139 378 422V0H872v-695c0-172-96-275-252-275-161 0-282 109-282 300" id="bj"/><g id="o"><use transform="matrix(0.010850694444444444,0,0,0.010850694444444444,0,0)" xlink:href="#bi"/><use transform="matrix(0.010850694444444444,0,0,0.010850694444444444,13.118489583333332,0)" xlink:href="#bc"/><use transform="matrix(0.010850694444444444,0,0,0.010850694444444444,18.50043402777778,0)" xlink:href="#aY"/><use transform="matrix(0.010850694444444444,0,0,0.010850694444444444,30.97873263888889,0)" xlink:href="#aM"/><use transform="matrix(0.010850694444444444,0,0,0.010850694444444444,37.70616319444444,0)" xlink:href="#aM"/><use transform="matrix(0.010850694444444444,0,0,0.010850694444444444,44.75911458333333,0)" xlink:href="#aN"/><use transform="matrix(0.010850694444444444,0,0,0.010850694444444444,57.71484375,0)" xlink:href="#bj"/></g><g id="p"><use transform="matrix(0.010850694444444444,0,0,0.010850694444444444,0,0)" xlink:href="#aM"/><use transform="matrix(0.010850694444444444,0,0,0.010850694444444444,7.052951388888888,0)" xlink:href="#aR"/></g><g id="q"><use transform="matrix(0.010850694444444444,0,0,0.010850694444444444,0,0)" xlink:href="#aY"/><use transform="matrix(0.010850694444444444,0,0,0.010850694444444444,12.47829861111111,0)" xlink:href="#bj"/></g><g id="r"><use transform="matrix(0.010850694444444444,0,0,0.010850694444444444,0,0)" xlink:href="#aY"/><use transform="matrix(0.010850694444444444,0,0,0.010850694444444444,12.47829861111111,0)" xlink:href="#aS"/><use transform="matrix(0.010850694444444444,0,0,0.010850694444444444,21.19140625,0)" xlink:href="#aS"/><use transform="matrix(0.010850694444444444,0,0,0.010850694444444444,29.557291666666664,0)" xlink:href="#aY"/><use transform="matrix(0.010850694444444444,0,0,0.010850694444444444,41.71006944444444,0)" xlink:href="#aX"/></g><path d="M120-303v-155l652-1032h231v1020h202v167h-202V0H821v-303H120zm702-167v-782h-12L323-482v12h499" id="bk"/><g id="s"><use transform="matrix(0.010850694444444444,0,0,0.010850694444444444,0,0)" xlink:href="#bk"/><use transform="matrix(0.010850694444444444,0,0,0.010850694444444444,14.35546875,0)" xlink:href="#aQ"/></g><g id="t"><use transform="matrix(0.010850694444444444,0,0,0.010850694444444444,0,0)" xlink:href="#aM"/><use transform="matrix(0.010850694444444444,0,0,0.010850694444444444,7.269965277777778,0)" xlink:href="#bg"/><use transform="matrix(0.010850694444444444,0,0,0.010850694444444444,20.41015625,0)" xlink:href="#aN"/></g><g id="u"><use transform="matrix(0.010850694444444444,0,0,0.010850694444444444,0,0)" xlink:href="#aY"/><use transform="matrix(0.010850694444444444,0,0,0.010850694444444444,12.47829861111111,0)" xlink:href="#aS"/><use transform="matrix(0.010850694444444444,0,0,0.010850694444444444,21.19140625,0)" xlink:href="#aS"/><use transform="matrix(0.010850694444444444,0,0,0.010850694444444444,29.557291666666664,0)" xlink:href="#aY"/><use transform="matrix(0.010850694444444444,0,0,0.010850694444444444,41.71006944444444,0)" xlink:href="#aX"/><use transform="matrix(0.010850694444444444,0,0,0.010850694444444444,54.19921875,0)" xlink:href="#aV"/></g><path d="M98-1322v-168h1126v168H757V0H567v-1322H98" id="bl"/><path d="M226-283v-166h904v166H226zm0-434v-166h904v166H226" id="bm"/><path d="M226 279v-1860h398v153H398V126h226v153H226" id="bn"/><path d="M123 279V126h226v-1554H123v-153h398V279H123" id="bo"/><path d="M128 359l88-567h206L266 359H128" id="bp"/><path d="M295 13c-75 0-135-60-135-135s60-135 135-135 135 60 135 135S370 13 295 13" id="bq"/><g id="v"><use transform="matrix(0.010850694444444444,0,0,0.010850694444444444,0,0)" xlink:href="#bl"/><use transform="matrix(0.010850694444444444,0,0,0.010850694444444444,14.344618055555555,0)" xlink:href="#aP"/><use transform="matrix(0.010850694444444444,0,0,0.010850694444444444,23.38324652777778,0)" xlink:href="#bm"/><use transform="matrix(0.010850694444444444,0,0,0.010850694444444444,38.0859375,0)" xlink:href="#aM"/><use transform="matrix(0.010850694444444444,0,0,0.010850694444444444,45.35590277777778,0)" xlink:href="#bn"/><use transform="matrix(0.010850694444444444,0,0,0.010850694444444444,53.46137152777778,0)" xlink:href="#aP"/><use transform="matrix(0.010850694444444444,0,0,0.010850694444444444,62.5,0)" xlink:href="#bo"/><use transform="matrix(0.010850694444444444,0,0,0.010850694444444444,70.60546875,0)" xlink:href="#bp"/><use transform="matrix(0.010850694444444444,0,0,0.010850694444444444,77.00737847222223,0)" xlink:href="#aM"/><use transform="matrix(0.010850694444444444,0,0,0.010850694444444444,84.27734375,0)" xlink:href="#bn"/><use transform="matrix(0.010850694444444444,0,0,0.010850694444444444,92.3828125,0)" xlink:href="#aZ"/><use transform="matrix(0.010850694444444444,0,0,0.010850694444444444,105.93532986111111,0)" xlink:href="#bo"/><use transform="matrix(0.010850694444444444,0,0,0.010850694444444444,114.0407986111111,0)" xlink:href="#bp"/><use transform="matrix(0.010850694444444444,0,0,0.010850694444444444,120.44270833333334,0)" xlink:href="#aM"/><use transform="matrix(0.010850694444444444,0,0,0.010850694444444444,127.7126736111111,0)" xlink:href="#bn"/><use transform="matrix(0.010850694444444444,0,0,0.010850694444444444,135.81814236111111,0)" xlink:href="#bh"/><use transform="matrix(0.010850694444444444,0,0,0.010850694444444444,149.54427083333334,0)" xlink:href="#bo"/><use transform="matrix(0.010850694444444444,0,0,0.010850694444444444,157.64973958333334,0)" xlink:href="#bq"/><use transform="matrix(0.010850694444444444,0,0,0.010850694444444444,164.05164930555557,0)" xlink:href="#bq"/><use transform="matrix(0.010850694444444444,0,0,0.010850694444444444,170.4535590277778,0)" xlink:href="#bq"/><use transform="matrix(0.010850694444444444,0,0,0.010850694444444444,176.85546875000003,0)" xlink:href="#aM"/><use transform="matrix(0.010850694444444444,0,0,0.010850694444444444,184.1254340277778,0)" xlink:href="#bn"/><use transform="matrix(0.010850694444444444,0,0,0.010850694444444444,192.2309027777778,0)" xlink:href="#bj"/><use transform="matrix(0.010850694444444444,0,0,0.010850694444444444,205.3602430555556,0)" xlink:href="#bo"/></g><g id="w"><use transform="matrix(0.010850694444444444,0,0,0.010850694444444444,0,0)" xlink:href="#bl"/><use transform="matrix(0.010850694444444444,0,0,0.010850694444444444,14.344618055555555,0)" xlink:href="#aZ"/><use transform="matrix(0.010850694444444444,0,0,0.010850694444444444,27.897135416666664,0)" xlink:href="#bm"/><use transform="matrix(0.010850694444444444,0,0,0.010850694444444444,42.599826388888886,0)" xlink:href="#aM"/><use transform="matrix(0.010850694444444444,0,0,0.010850694444444444,49.869791666666664,0)" xlink:href="#bn"/><use transform="matrix(0.010850694444444444,0,0,0.010850694444444444,57.975260416666664,0)" xlink:href="#aP"/><use transform="matrix(0.010850694444444444,0,0,0.010850694444444444,67.01388888888889,0)" xlink:href="#bo"/><use transform="matrix(0.010850694444444444,0,0,0.010850694444444444,75.11935763888889,0)" xlink:href="#bp"/><use transform="matrix(0.010850694444444444,0,0,0.010850694444444444,81.52126736111111,0)" xlink:href="#aM"/><use transform="matrix(0.010850694444444444,0,0,0.010850694444444444,88.79123263888889,0)" xlink:href="#bn"/><use transform="matrix(0.010850694444444444,0,0,0.010850694444444444,96.89670138888889,0)" xlink:href="#aZ"/><use transform="matrix(0.010850694444444444,0,0,0.010850694444444444,110.44921875,0)" xlink:href="#bo"/><use transform="matrix(0.010850694444444444,0,0,0.010850694444444444,118.5546875,0)" xlink:href="#bp"/><use transform="matrix(0.010850694444444444,0,0,0.010850694444444444,124.95659722222224,0)" xlink:href="#aM"/><use transform="matrix(0.010850694444444444,0,0,0.010850694444444444,132.2265625,0)" xlink:href="#bn"/><use transform="matrix(0.010850694444444444,0,0,0.010850694444444444,140.33203125,0)" xlink:href="#bh"/><use transform="matrix(0.010850694444444444,0,0,0.010850694444444444,154.05815972222223,0)" xlink:href="#bo"/><use transform="matrix(0.010850694444444444,0,0,0.010850694444444444,162.16362847222223,0)" xlink:href="#bq"/><use transform="matrix(0.010850694444444444,0,0,0.010850694444444444,168.56553819444446,0)" xlink:href="#bq"/><use transform="matrix(0.010850694444444444,0,0,0.010850694444444444,174.96744791666669,0)" xlink:href="#bq"/><use transform="matrix(0.010850694444444444,0,0,0.010850694444444444,181.3693576388889,0)" xlink:href="#aM"/><use transform="matrix(0.010850694444444444,0,0,0.010850694444444444,188.63932291666669,0)" xlink:href="#bn"/><use transform="matrix(0.010850694444444444,0,0,0.010850694444444444,196.74479166666669,0)" xlink:href="#bj"/><use transform="matrix(0.010850694444444444,0,0,0.010850694444444444,209.87413194444449,0)" xlink:href="#bo"/></g><g id="x"><use transform="matrix(0.010850694444444444,0,0,0.010850694444444444,0,0)" xlink:href="#bl"/><use transform="matrix(0.010850694444444444,0,0,0.010850694444444444,14.344618055555555,0)" xlink:href="#bh"/><use transform="matrix(0.010850694444444444,0,0,0.010850694444444444,28.070746527777775,0)" xlink:href="#bm"/><use transform="matrix(0.010850694444444444,0,0,0.010850694444444444,42.7734375,0)" xlink:href="#aM"/><use transform="matrix(0.010850694444444444,0,0,0.010850694444444444,50.04340277777778,0)" xlink:href="#bn"/><use transform="matrix(0.010850694444444444,0,0,0.010850694444444444,58.14887152777778,0)" xlink:href="#aP"/><use transform="matrix(0.010850694444444444,0,0,0.010850694444444444,67.1875,0)" xlink:href="#bo"/><use transform="matrix(0.010850694444444444,0,0,0.010850694444444444,75.29296875,0)" xlink:href="#bp"/><use transform="matrix(0.010850694444444444,0,0,0.010850694444444444,81.69487847222223,0)" xlink:href="#aM"/><use transform="matrix(0.010850694444444444,0,0,0.010850694444444444,88.96484375,0)" xlink:href="#bn"/><use transform="matrix(0.010850694444444444,0,0,0.010850694444444444,97.0703125,0)" xlink:href="#aZ"/><use transform="matrix(0.010850694444444444,0,0,0.010850694444444444,110.62282986111111,0)" xlink:href="#bo"/><use transform="matrix(0.010850694444444444,0,0,0.010850694444444444,118.7282986111111,0)" xlink:href="#bp"/><use transform="matrix(0.010850694444444444,0,0,0.010850694444444444,125.13020833333334,0)" xlink:href="#aM"/><use transform="matrix(0.010850694444444444,0,0,0.010850694444444444,132.40017361111111,0)" xlink:href="#bn"/><use transform="matrix(0.010850694444444444,0,0,0.010850694444444444,140.50564236111111,0)" xlink:href="#bh"/><use transform="matrix(0.010850694444444444,0,0,0.010850694444444444,154.23177083333334,0)" xlink:href="#bo"/><use transform="matrix(0.010850694444444444,0,0,0.010850694444444444,162.33723958333334,0)" xlink:href="#bq"/><use transform="matrix(0.010850694444444444,0,0,0.010850694444444444,168.73914930555557,0)" xlink:href="#bq"/><use transform="matrix(0.010850694444444444,0,0,0.010850694444444444,175.1410590277778,0)" xlink:href="#bq"/><use transform="matrix(0.010850694444444444,0,0,0.010850694444444444,181.54296875000003,0)" xlink:href="#aM"/><use transform="matrix(0.010850694444444444,0,0,0.010850694444444444,188.8129340277778,0)" xlink:href="#bn"/><use transform="matrix(0.010850694444444444,0,0,0.010850694444444444,196.9184027777778,0)" xlink:href="#bj"/><use transform="matrix(0.010850694444444444,0,0,0.010850694444444444,210.0477430555556,0)" xlink:href="#bo"/></g><g id="y"><use transform="matrix(0.010850694444444444,0,0,0.010850694444444444,0,0)" xlink:href="#bq"/><use transform="matrix(0.010850694444444444,0,0,0.010850694444444444,6.401909722222222,0)" xlink:href="#bq"/><use transform="matrix(0.010850694444444444,0,0,0.010850694444444444,12.803819444444445,0)" xlink:href="#bq"/></g><g id="z"><use transform="matrix(0.010850694444444444,0,0,0.010850694444444444,0,0)" xlink:href="#bl"/><use transform="matrix(0.010850694444444444,0,0,0.010850694444444444,12.955729166666666,0)" xlink:href="#bd"/><use transform="matrix(0.010850694444444444,0,0,0.010850694444444444,24.33810763888889,0)" xlink:href="#bm"/><use transform="matrix(0.010850694444444444,0,0,0.010850694444444444,39.040798611111114,0)" xlink:href="#aM"/><use transform="matrix(0.010850694444444444,0,0,0.010850694444444444,46.3107638888889,0)" xlink:href="#bn"/><use transform="matrix(0.010850694444444444,0,0,0.010850694444444444,54.4162326388889,0)" xlink:href="#aP"/><use transform="matrix(0.010850694444444444,0,0,0.010850694444444444,63.45486111111112,0)" xlink:href="#bo"/><use transform="matrix(0.010850694444444444,0,0,0.010850694444444444,71.56032986111111,0)" xlink:href="#bp"/><use transform="matrix(0.010850694444444444,0,0,0.010850694444444444,77.96223958333334,0)" xlink:href="#aM"/><use transform="matrix(0.010850694444444444,0,0,0.010850694444444444,85.23220486111111,0)" xlink:href="#bn"/><use transform="matrix(0.010850694444444444,0,0,0.010850694444444444,93.33767361111111,0)" xlink:href="#aZ"/><use transform="matrix(0.010850694444444444,0,0,0.010850694444444444,106.89019097222224,0)" xlink:href="#bo"/><use transform="matrix(0.010850694444444444,0,0,0.010850694444444444,114.99565972222224,0)" xlink:href="#bp"/><use transform="matrix(0.010850694444444444,0,0,0.010850694444444444,121.39756944444446,0)" xlink:href="#aM"/><use transform="matrix(0.010850694444444444,0,0,0.010850694444444444,128.66753472222223,0)" xlink:href="#bn"/><use transform="matrix(0.010850694444444444,0,0,0.010850694444444444,136.77300347222223,0)" xlink:href="#bh"/><use transform="matrix(0.010850694444444444,0,0,0.010850694444444444,150.49913194444446,0)" xlink:href="#bo"/><use transform="matrix(0.010850694444444444,0,0,0.010850694444444444,158.60460069444446,0)" xlink:href="#bq"/><use transform="matrix(0.010850694444444444,0,0,0.010850694444444444,165.00651041666669,0)" xlink:href="#bq"/><use transform="matrix(0.010850694444444444,0,0,0.010850694444444444,171.4084201388889,0)" xlink:href="#bq"/><use transform="matrix(0.010850694444444444,0,0,0.010850694444444444,177.81032986111114,0)" xlink:href="#aM"/><use transform="matrix(0.010850694444444444,0,0,0.010850694444444444,185.0802951388889,0)" xlink:href="#bn"/><use transform="matrix(0.010850694444444444,0,0,0.010850694444444444,193.1857638888889,0)" xlink:href="#bj"/><use transform="matrix(0.010850694444444444,0,0,0.010850694444444444,206.31510416666669,0)" xlink:href="#bo"/></g><path d="M600 0v-610L52-1490h220l295 481c50 82 90 150 130 243 40-96 80-164 128-243l294-481h219L790-610V0H600" id="br"/><g id="A"><use transform="matrix(0.010850694444444444,0,0,0.010850694444444444,0,0)" xlink:href="#br"/><use transform="matrix(0.010850694444444444,0,0,0.010850694444444444,13.37890625,0)" xlink:href="#aN"/><use transform="matrix(0.010850694444444444,0,0,0.010850694444444444,26.55164930555556,0)" xlink:href="#aY"/><use transform="matrix(0.010850694444444444,0,0,0.010850694444444444,39.02994791666667,0)" xlink:href="#aS"/></g><use transform="matrix(0.010850694444444444,0,0,0.010850694444444444,0,0)" xlink:href="#aP" id="B"/><use transform="matrix(0.010850694444444444,0,0,0.010850694444444444,0,0)" xlink:href="#aZ" id="C"/><use transform="matrix(0.010850694444444444,0,0,0.010850694444444444,0,0)" xlink:href="#bh" id="D"/><use transform="matrix(0.010850694444444444,0,0,0.010850694444444444,0,0)" xlink:href="#aX" id="E"/><path d="M537 14c-226 0-379-139-379-422v-710h180v695c0 172 97 275 253 275 160 0 281-109 281-300v-670h181V0H879v-209C806-46 684 14 537 14" id="bs"/><g id="F"><use transform="matrix(0.010850694444444444,0,0,0.010850694444444444,0,0)" xlink:href="#ba"/><use transform="matrix(0.010850694444444444,0,0,0.010850694444444444,16.23263888888889,0)" xlink:href="#bc"/><use transform="matrix(0.010850694444444444,0,0,0.010850694444444444,21.614583333333336,0)" xlink:href="#bs"/><use transform="matrix(0.010850694444444444,0,0,0.010850694444444444,34.75477430555556,0)" xlink:href="#aV"/><use transform="matrix(0.010850694444444444,0,0,0.010850694444444444,46.484375,0)" xlink:href="#aM"/><use transform="matrix(0.010850694444444444,0,0,0.010850694444444444,53.5373263888889,0)" xlink:href="#aN"/><use transform="matrix(0.010850694444444444,0,0,0.010850694444444444,66.49305555555556,0)" xlink:href="#aS"/></g><g id="G"><use transform="matrix(0.010850694444444444,0,0,0.010850694444444444,0,0)" xlink:href="#aX"/><use transform="matrix(0.010850694444444444,0,0,0.010850694444444444,12.055121527777777,0)" xlink:href="#aN"/><use transform="matrix(0.010850694444444444,0,0,0.010850694444444444,25.227864583333332,0)" xlink:href="#aY"/><use transform="matrix(0.010850694444444444,0,0,0.010850694444444444,37.70616319444444,0)" xlink:href="#aS"/><use transform="matrix(0.010850694444444444,0,0,0.010850694444444444,46.07204861111111,0)" xlink:href="#aP"/></g><g id="H"><use transform="matrix(0.010850694444444444,0,0,0.010850694444444444,0,0)" xlink:href="#aX"/><use transform="matrix(0.010850694444444444,0,0,0.010850694444444444,12.055121527777777,0)" xlink:href="#aN"/><use transform="matrix(0.010850694444444444,0,0,0.010850694444444444,25.227864583333332,0)" xlink:href="#aY"/><use transform="matrix(0.010850694444444444,0,0,0.010850694444444444,37.70616319444444,0)" xlink:href="#aS"/></g><g id="I"><use transform="matrix(0.010850694444444444,0,0,0.010850694444444444,0,0)" xlink:href="#aM"/><use transform="matrix(0.010850694444444444,0,0,0.010850694444444444,7.269965277777778,0)" xlink:href="#aP"/></g><g id="J"><use transform="matrix(0.010850694444444444,0,0,0.010850694444444444,0,0)" xlink:href="#aM"/><use transform="matrix(0.010850694444444444,0,0,0.010850694444444444,7.269965277777778,0)" xlink:href="#aZ"/></g><g id="K"><use transform="matrix(0.010850694444444444,0,0,0.010850694444444444,0,0)" xlink:href="#aM"/><use transform="matrix(0.010850694444444444,0,0,0.010850694444444444,7.269965277777778,0)" xlink:href="#bh"/></g><g id="L"><use transform="matrix(0.010850694444444444,0,0,0.010850694444444444,0,0)" xlink:href="#aM"/><use transform="matrix(0.010850694444444444,0,0,0.010850694444444444,7.269965277777778,0)" xlink:href="#bd"/></g><path d="M646 20c-332 0-524-278-524-764 0-483 194-766 524-766s524 283 524 766c0 485-191 764-524 764zm0-166c218 0 341-220 341-598 0-380-123-601-341-601s-341 222-341 601c0 378 123 598 341 598" id="bt"/><use transform="matrix(0.010850694444444444,0,0,0.010850694444444444,0,0)" xlink:href="#bt" id="M"/><path d="M603 20c-253 0-434-161-469-399h188c31 132 124 231 281 231 227 0 367-207 367-568h-12c-80 122-211 199-367 199-257 0-469-206-469-493 0-278 200-505 506-500 245 4 520 158 520 706 0 527-208 824-545 824zm16-703c181 0 324-157 324-332 0-171-135-328-318-328-180 0-317 148-317 332 0 183 131 328 311 328" id="bu"/><g id="N"><use transform="matrix(0.010850694444444444,0,0,0.010850694444444444,0,0)" xlink:href="#aP"/><use transform="matrix(0.010850694444444444,0,0,0.010850694444444444,9.038628472222221,0)" xlink:href="#aZ"/><use transform="matrix(0.010850694444444444,0,0,0.010850694444444444,22.591145833333332,0)" xlink:href="#bq"/><use transform="matrix(0.010850694444444444,0,0,0.010850694444444444,28.993055555555554,0)" xlink:href="#bk"/><use transform="matrix(0.010850694444444444,0,0,0.010850694444444444,43.34852430555556,0)" xlink:href="#bu"/></g><path d="M626 20c-262 0-458-168-468-396h184c12 133 134 229 284 229 180 0 311-137 311-326 0-192-136-335-323-335-92 0-196 33-255 78l-178-22 88-738h784v167H429l-51 435h8c61-51 160-87 263-87 273 0 474 211 474 499 0 286-210 496-497 496" id="bv"/><g id="O"><use transform="matrix(0.010850694444444444,0,0,0.010850694444444444,0,0)" xlink:href="#bv"/><use transform="matrix(0.010850694444444444,0,0,0.010850694444444444,13.509114583333332,0)" xlink:href="#bu"/><use transform="matrix(0.010850694444444444,0,0,0.010850694444444444,26.725260416666664,0)" xlink:href="#bq"/><use transform="matrix(0.010850694444444444,0,0,0.010850694444444444,31.206597222222218,0)" xlink:href="#aP"/><use transform="matrix(0.010850694444444444,0,0,0.010850694444444444,40.24522569444444,0)" xlink:href="#bh"/></g><g id="P"><use transform="matrix(0.010850694444444444,0,0,0.010850694444444444,0,0)" xlink:href="#aP"/><use transform="matrix(0.010850694444444444,0,0,0.010850694444444444,9.038628472222221,0)" xlink:href="#bk"/><use transform="matrix(0.010850694444444444,0,0,0.010850694444444444,22.645399305555554,0)" xlink:href="#bq"/><use transform="matrix(0.010850694444444444,0,0,0.010850694444444444,28.89539930555556,0)" xlink:href="#bu"/><use transform="matrix(0.010850694444444444,0,0,0.010850694444444444,42.67578125,0)" xlink:href="#aP"/></g><g id="Q"><use transform="matrix(0.010850694444444444,0,0,0.010850694444444444,0,0)" xlink:href="#bk"/><use transform="matrix(0.010850694444444444,0,0,0.010850694444444444,14.35546875,0)" xlink:href="#bk"/><use transform="matrix(0.010850694444444444,0,0,0.010850694444444444,27.962239583333336,0)" xlink:href="#bq"/><use transform="matrix(0.010850694444444444,0,0,0.010850694444444444,34.212239583333336,0)" xlink:href="#bu"/><use transform="matrix(0.010850694444444444,0,0,0.010850694444444444,47.99262152777778,0)" xlink:href="#aP"/></g><path d="M633 20c-303 0-511-173-511-416 0-188 124-348 291-378v-8c-145-37-237-174-237-332 0-227 192-396 457-396 261 0 456 169 456 396 0 158-94 295-235 332v8c162 30 291 190 291 378 0 243-212 416-512 416zm0-165c197 0 322-103 322-261 0-165-138-283-322-283-188 0-324 118-324 283 0 158 123 261 324 261zm0-703c157 0 272-101 272-252 0-149-110-246-272-246-165 0-273 97-273 246 0 151 112 252 273 252" id="bw"/><g id="R"><use transform="matrix(0.010850694444444444,0,0,0.010850694444444444,0,0)" xlink:href="#bw"/><use transform="matrix(0.010850694444444444,0,0,0.010850694444444444,13.248697916666666,0)" xlink:href="#bq"/><use transform="matrix(0.010850694444444444,0,0,0.010850694444444444,19.65060763888889,0)" xlink:href="#bk"/><use transform="matrix(0.010850694444444444,0,0,0.010850694444444444,34.006076388888886,0)" xlink:href="#bk"/></g><g id="S"><use transform="matrix(0.010850694444444444,0,0,0.010850694444444444,0,0)" xlink:href="#bk"/><use transform="matrix(0.010850694444444444,0,0,0.010850694444444444,14.35546875,0)" xlink:href="#bk"/><use transform="matrix(0.010850694444444444,0,0,0.010850694444444444,27.962239583333336,0)" xlink:href="#bq"/><use transform="matrix(0.010850694444444444,0,0,0.010850694444444444,34.36414930555556,0)" xlink:href="#aZ"/><use transform="matrix(0.010850694444444444,0,0,0.010850694444444444,47.91666666666667,0)" xlink:href="#aZ"/></g><g id="T"><use transform="matrix(0.010850694444444444,0,0,0.010850694444444444,0,0)" xlink:href="#aM"/><use transform="matrix(0.010850694444444444,0,0,0.010850694444444444,7.269965277777778,0)" xlink:href="#bj"/></g><path d="M200 0l662-1311v-12H98v-167h963v177L400 0H200" id="bx"/><g id="U"><use transform="matrix(0.010850694444444444,0,0,0.010850694444444444,0,0)" xlink:href="#bk"/><use transform="matrix(0.010850694444444444,0,0,0.010850694444444444,13.606770833333332,0)" xlink:href="#bq"/><use transform="matrix(0.010850694444444444,0,0,0.010850694444444444,19.694010416666668,0)" xlink:href="#bx"/><use transform="matrix(0.010850694444444444,0,0,0.010850694444444444,30.97873263888889,0)" xlink:href="#bk"/></g><g id="V"><use transform="matrix(0.010850694444444444,0,0,0.010850694444444444,0,0)" xlink:href="#bv"/><use transform="matrix(0.010850694444444444,0,0,0.010850694444444444,12.91232638888889,0)" xlink:href="#bq"/><use transform="matrix(0.010850694444444444,0,0,0.010850694444444444,19.16232638888889,0)" xlink:href="#bu"/><use transform="matrix(0.010850694444444444,0,0,0.010850694444444444,32.942708333333336,0)" xlink:href="#bt"/></g><g id="W"><use transform="matrix(0.010850694444444444,0,0,0.010850694444444444,0,0)" xlink:href="#aZ"/><use transform="matrix(0.010850694444444444,0,0,0.010850694444444444,13.55251736111111,0)" xlink:href="#bq"/><use transform="matrix(0.010850694444444444,0,0,0.010850694444444444,19.954427083333332,0)" xlink:href="#aZ"/><use transform="matrix(0.010850694444444444,0,0,0.010850694444444444,33.50694444444444,0)" xlink:href="#bw"/></g><path d="M646 20c-249 0-524-159-524-708 0-524 209-822 547-822 250 0 431 161 467 395H950c-33-129-126-227-281-227-229 0-367 208-367 566h12c80-124 212-198 367-198 255 0 467 205 467 493 0 278-198 501-502 501zm0-167c179 0 318-148 318-334 0-182-133-328-313-328-181 0-322 156-322 330 0 176 134 332 317 332" id="by"/><g id="X"><use transform="matrix(0.010850694444444444,0,0,0.010850694444444444,0,0)" xlink:href="#bv"/><use transform="matrix(0.010850694444444444,0,0,0.010850694444444444,12.91232638888889,0)" xlink:href="#bq"/><use transform="matrix(0.010850694444444444,0,0,0.010850694444444444,18.75,0)" xlink:href="#by"/><use transform="matrix(0.010850694444444444,0,0,0.010850694444444444,32.53038194444444,0)" xlink:href="#aZ"/></g><g id="Y"><use transform="matrix(0.010850694444444444,0,0,0.010850694444444444,0,0)" xlink:href="#bk"/><use transform="matrix(0.010850694444444444,0,0,0.010850694444444444,13.606770833333332,0)" xlink:href="#bq"/><use transform="matrix(0.010850694444444444,0,0,0.010850694444444444,19.444444444444446,0)" xlink:href="#bt"/><use transform="matrix(0.010850694444444444,0,0,0.010850694444444444,33.46354166666667,0)" xlink:href="#by"/></g><g id="Z"><use transform="matrix(0.010850694444444444,0,0,0.010850694444444444,0,0)" xlink:href="#bk"/><use transform="matrix(0.010850694444444444,0,0,0.010850694444444444,13.606770833333332,0)" xlink:href="#bq"/><use transform="matrix(0.010850694444444444,0,0,0.010850694444444444,19.694010416666668,0)" xlink:href="#bv"/><use transform="matrix(0.010850694444444444,0,0,0.010850694444444444,33.203125,0)" xlink:href="#aP"/></g><g id="aa"><use transform="matrix(0.010850694444444444,0,0,0.010850694444444444,0,0)" xlink:href="#aZ"/><use transform="matrix(0.010850694444444444,0,0,0.010850694444444444,13.55251736111111,0)" xlink:href="#bq"/><use transform="matrix(0.010850694444444444,0,0,0.010850694444444444,19.35763888888889,0)" xlink:href="#bh"/><use transform="matrix(0.010850694444444444,0,0,0.010850694444444444,33.083767361111114,0)" xlink:href="#by"/></g><g id="ab"><use transform="matrix(0.010850694444444444,0,0,0.010850694444444444,0,0)" xlink:href="#bh"/><use transform="matrix(0.010850694444444444,0,0,0.010850694444444444,13.726128472222221,0)" xlink:href="#bv"/><use transform="matrix(0.010850694444444444,0,0,0.010850694444444444,26.638454861111104,0)" xlink:href="#bq"/><use transform="matrix(0.010850694444444444,0,0,0.010850694444444444,32.88845486111111,0)" xlink:href="#bu"/><use transform="matrix(0.010850694444444444,0,0,0.010850694444444444,46.66883680555556,0)" xlink:href="#bw"/></g><g id="ac"><use transform="matrix(0.010850694444444444,0,0,0.010850694444444444,0,0)" xlink:href="#bv"/><use transform="matrix(0.010850694444444444,0,0,0.010850694444444444,12.91232638888889,0)" xlink:href="#bq"/><use transform="matrix(0.010850694444444444,0,0,0.010850694444444444,17.393663194444443,0)" xlink:href="#aP"/><use transform="matrix(0.010850694444444444,0,0,0.010850694444444444,26.432291666666664,0)" xlink:href="#bw"/></g><g id="ad"><use transform="matrix(0.010850694444444444,0,0,0.010850694444444444,0,0)" xlink:href="#bh"/><use transform="matrix(0.010850694444444444,0,0,0.010850694444444444,13.726128472222221,0)" xlink:href="#bv"/><use transform="matrix(0.010850694444444444,0,0,0.010850694444444444,26.638454861111104,0)" xlink:href="#bq"/><use transform="matrix(0.010850694444444444,0,0,0.010850694444444444,33.04036458333333,0)" xlink:href="#bk"/><use transform="matrix(0.010850694444444444,0,0,0.010850694444444444,47.39583333333333,0)" xlink:href="#bk"/></g><g id="ae"><use transform="matrix(0.010850694444444444,0,0,0.010850694444444444,0,0)" xlink:href="#bk"/><use transform="matrix(0.010850694444444444,0,0,0.010850694444444444,13.606770833333332,0)" xlink:href="#bq"/><use transform="matrix(0.010850694444444444,0,0,0.010850694444444444,19.694010416666668,0)" xlink:href="#bv"/><use transform="matrix(0.010850694444444444,0,0,0.010850694444444444,33.203125,0)" xlink:href="#bx"/></g><g id="af"><use transform="matrix(0.010850694444444444,0,0,0.010850694444444444,0,0)" xlink:href="#aZ"/><use transform="matrix(0.010850694444444444,0,0,0.010850694444444444,13.55251736111111,0)" xlink:href="#bw"/><use transform="matrix(0.010850694444444444,0,0,0.010850694444444444,26.80121527777778,0)" xlink:href="#bq"/><use transform="matrix(0.010850694444444444,0,0,0.010850694444444444,31.282552083333332,0)" xlink:href="#aP"/><use transform="matrix(0.010850694444444444,0,0,0.010850694444444444,40.32118055555556,0)" xlink:href="#bw"/></g><g id="ag"><use transform="matrix(0.010850694444444444,0,0,0.010850694444444444,0,0)" xlink:href="#bt"/><use transform="matrix(0.010850694444444444,0,0,0.010850694444444444,13.45486111111111,0)" xlink:href="#bq"/><use transform="matrix(0.010850694444444444,0,0,0.010850694444444444,19.70486111111111,0)" xlink:href="#bu"/><use transform="matrix(0.010850694444444444,0,0,0.010850694444444444,33.48524305555556,0)" xlink:href="#bu"/></g><g id="ah"><use transform="matrix(0.010850694444444444,0,0,0.010850694444444444,0,0)" xlink:href="#bx"/><use transform="matrix(0.010850694444444444,0,0,0.010850694444444444,9.798177083333332,0)" xlink:href="#bq"/><use transform="matrix(0.010850694444444444,0,0,0.010850694444444444,15.70095486111111,0)" xlink:href="#bw"/><use transform="matrix(0.010850694444444444,0,0,0.010850694444444444,29.44878472222222,0)" xlink:href="#aZ"/></g><g id="ai"><use transform="matrix(0.010850694444444444,0,0,0.010850694444444444,0,0)" xlink:href="#bx"/><use transform="matrix(0.010850694444444444,0,0,0.010850694444444444,9.798177083333332,0)" xlink:href="#bq"/><use transform="matrix(0.010850694444444444,0,0,0.010850694444444444,15.885416666666664,0)" xlink:href="#bv"/><use transform="matrix(0.010850694444444444,0,0,0.010850694444444444,29.394531249999993,0)" xlink:href="#bt"/></g><g id="aj"><use transform="matrix(0.010850694444444444,0,0,0.010850694444444444,0,0)" xlink:href="#aZ"/><use transform="matrix(0.010850694444444444,0,0,0.010850694444444444,13.55251736111111,0)" xlink:href="#bq"/><use transform="matrix(0.010850694444444444,0,0,0.010850694444444444,19.39019097222222,0)" xlink:href="#bt"/><use transform="matrix(0.010850694444444444,0,0,0.010850694444444444,33.40928819444444,0)" xlink:href="#aP"/></g><g id="ak"><use transform="matrix(0.010850694444444444,0,0,0.010850694444444444,0,0)" xlink:href="#bk"/><use transform="matrix(0.010850694444444444,0,0,0.010850694444444444,13.606770833333332,0)" xlink:href="#bq"/><use transform="matrix(0.010850694444444444,0,0,0.010850694444444444,19.694010416666668,0)" xlink:href="#bx"/><use transform="matrix(0.010850694444444444,0,0,0.010850694444444444,32.052951388888886,0)" xlink:href="#bu"/></g><g id="al"><use transform="matrix(0.010850694444444444,0,0,0.010850694444444444,0,0)" xlink:href="#aX"/><use transform="matrix(0.010850694444444444,0,0,0.010850694444444444,12.055121527777777,0)" xlink:href="#aN"/><use transform="matrix(0.010850694444444444,0,0,0.010850694444444444,25.227864583333332,0)" xlink:href="#aY"/><use transform="matrix(0.010850694444444444,0,0,0.010850694444444444,37.70616319444444,0)" xlink:href="#aS"/><use transform="matrix(0.010850694444444444,0,0,0.010850694444444444,46.07204861111111,0)" xlink:href="#aP"/></g><g id="am"><use transform="matrix(0.010850694444444444,0,0,0.010850694444444444,0,0)" xlink:href="#aX"/><use transform="matrix(0.010850694444444444,0,0,0.010850694444444444,12.055121527777777,0)" xlink:href="#aN"/><use transform="matrix(0.010850694444444444,0,0,0.010850694444444444,25.227864583333332,0)" xlink:href="#aY"/><use transform="matrix(0.010850694444444444,0,0,0.010850694444444444,37.70616319444444,0)" xlink:href="#aS"/><use transform="matrix(0.010850694444444444,0,0,0.010850694444444444,46.07204861111111,0)" xlink:href="#aZ"/></g><g id="an"><use transform="matrix(0.010850694444444444,0,0,0.010850694444444444,0,0)" xlink:href="#aX"/><use transform="matrix(0.010850694444444444,0,0,0.010850694444444444,12.055121527777777,0)" xlink:href="#aN"/><use transform="matrix(0.010850694444444444,0,0,0.010850694444444444,25.227864583333332,0)" xlink:href="#aY"/><use transform="matrix(0.010850694444444444,0,0,0.010850694444444444,37.70616319444444,0)" xlink:href="#aS"/><use transform="matrix(0.010850694444444444,0,0,0.010850694444444444,46.07204861111111,0)" xlink:href="#bh"/></g><g id="ao"><use transform="matrix(0.010850694444444444,0,0,0.010850694444444444,0,0)" xlink:href="#aX"/><use transform="matrix(0.010850694444444444,0,0,0.010850694444444444,12.055121527777777,0)" xlink:href="#aN"/><use transform="matrix(0.010850694444444444,0,0,0.010850694444444444,25.227864583333332,0)" xlink:href="#aY"/><use transform="matrix(0.010850694444444444,0,0,0.010850694444444444,37.70616319444444,0)" xlink:href="#aS"/><use transform="matrix(0.010850694444444444,0,0,0.010850694444444444,46.41927083333333,0)" xlink:href="#aX"/></g><g id="ap"><use transform="matrix(0.010850694444444444,0,0,0.010850694444444444,0,0)" xlink:href="#bh"/><use transform="matrix(0.010850694444444444,0,0,0.010850694444444444,13.726128472222221,0)" xlink:href="#by"/><use transform="matrix(0.010850694444444444,0,0,0.010850694444444444,27.506510416666664,0)" xlink:href="#bu"/><use transform="matrix(0.010850694444444444,0,0,0.010850694444444444,40.72265625,0)" xlink:href="#bq"/><use transform="matrix(0.010850694444444444,0,0,0.010850694444444444,46.56032986111111,0)" xlink:href="#by"/><use transform="matrix(0.010850694444444444,0,0,0.010850694444444444,60.34071180555555,0)" xlink:href="#bu"/><use transform="matrix(0.010850694444444444,0,0,0.010850694444444444,74.12109375,0)" xlink:href="#aP"/></g><g id="aq"><use transform="matrix(0.010850694444444444,0,0,0.010850694444444444,0,0)" xlink:href="#aP"/><use transform="matrix(0.010850694444444444,0,0,0.010850694444444444,9.038628472222221,0)" xlink:href="#bu"/><use transform="matrix(0.010850694444444444,0,0,0.010850694444444444,22.819010416666664,0)" xlink:href="#aP"/><use transform="matrix(0.010850694444444444,0,0,0.010850694444444444,31.85763888888889,0)" xlink:href="#bq"/><use transform="matrix(0.010850694444444444,0,0,0.010850694444444444,37.94487847222222,0)" xlink:href="#bx"/><use transform="matrix(0.010850694444444444,0,0,0.010850694444444444,50.95486111111112,0)" xlink:href="#bx"/><use transform="matrix(0.010850694444444444,0,0,0.010850694444444444,63.18359375,0)" xlink:href="#by"/></g><g id="ar"><use transform="matrix(0.010850694444444444,0,0,0.010850694444444444,0,0)" xlink:href="#bh"/><use transform="matrix(0.010850694444444444,0,0,0.010850694444444444,13.726128472222221,0)" xlink:href="#bk"/><use transform="matrix(0.010850694444444444,0,0,0.010850694444444444,28.08159722222222,0)" xlink:href="#bt"/><use transform="matrix(0.010850694444444444,0,0,0.010850694444444444,41.53645833333333,0)" xlink:href="#bq"/><use transform="matrix(0.010850694444444444,0,0,0.010850694444444444,47.374131944444436,0)" xlink:href="#by"/><use transform="matrix(0.010850694444444444,0,0,0.010850694444444444,61.15451388888888,0)" xlink:href="#bw"/></g><g id="as"><use transform="matrix(0.010850694444444444,0,0,0.010850694444444444,0,0)" xlink:href="#bh"/><use transform="matrix(0.010850694444444444,0,0,0.010850694444444444,13.726128472222221,0)" xlink:href="#by"/><use transform="matrix(0.010850694444444444,0,0,0.010850694444444444,27.506510416666664,0)" xlink:href="#bu"/><use transform="matrix(0.010850694444444444,0,0,0.010850694444444444,40.72265625,0)" xlink:href="#bq"/><use transform="matrix(0.010850694444444444,0,0,0.010850694444444444,46.56032986111111,0)" xlink:href="#by"/><use transform="matrix(0.010850694444444444,0,0,0.010850694444444444,60.34071180555555,0)" xlink:href="#bu"/></g><g id="at"><use transform="matrix(0.010850694444444444,0,0,0.010850694444444444,0,0)" xlink:href="#aZ"/><use transform="matrix(0.010850694444444444,0,0,0.010850694444444444,13.55251736111111,0)" xlink:href="#aP"/><use transform="matrix(0.010850694444444444,0,0,0.010850694444444444,22.591145833333332,0)" xlink:href="#bh"/><use transform="matrix(0.010850694444444444,0,0,0.010850694444444444,35.818142361111114,0)" xlink:href="#bq"/><use transform="matrix(0.010850694444444444,0,0,0.010850694444444444,41.90538194444445,0)" xlink:href="#bv"/><use transform="matrix(0.010850694444444444,0,0,0.010850694444444444,55.414496527777786,0)" xlink:href="#bx"/></g><g id="au"><use transform="matrix(0.010850694444444444,0,0,0.010850694444444444,0,0)" xlink:href="#bu"/><use transform="matrix(0.010850694444444444,0,0,0.010850694444444444,13.346354166666666,0)" xlink:href="#bx"/><use transform="matrix(0.010850694444444444,0,0,0.010850694444444444,23.14453125,0)" xlink:href="#bq"/><use transform="matrix(0.010850694444444444,0,0,0.010850694444444444,28.98220486111111,0)" xlink:href="#bt"/><use transform="matrix(0.010850694444444444,0,0,0.010850694444444444,43.00130208333333,0)" xlink:href="#by"/></g><g id="av"><use transform="matrix(0.010850694444444444,0,0,0.010850694444444444,0,0)" xlink:href="#aP"/><use transform="matrix(0.010850694444444444,0,0,0.010850694444444444,9.038628472222221,0)" xlink:href="#bu"/><use transform="matrix(0.010850694444444444,0,0,0.010850694444444444,22.819010416666664,0)" xlink:href="#aP"/><use transform="matrix(0.010850694444444444,0,0,0.010850694444444444,31.85763888888889,0)" xlink:href="#bq"/><use transform="matrix(0.010850694444444444,0,0,0.010850694444444444,37.94487847222222,0)" xlink:href="#bx"/><use transform="matrix(0.010850694444444444,0,0,0.010850694444444444,50.95486111111112,0)" xlink:href="#bx"/></g><g id="aw"><use transform="matrix(0.010850694444444444,0,0,0.010850694444444444,0,0)" xlink:href="#aZ"/><use transform="matrix(0.010850694444444444,0,0,0.010850694444444444,13.20529513888889,0)" xlink:href="#bk"/><use transform="matrix(0.010850694444444444,0,0,0.010850694444444444,27.56076388888889,0)" xlink:href="#aZ"/><use transform="matrix(0.010850694444444444,0,0,0.010850694444444444,41.11328125,0)" xlink:href="#bq"/><use transform="matrix(0.010850694444444444,0,0,0.010850694444444444,47.51519097222222,0)" xlink:href="#bk"/><use transform="matrix(0.010850694444444444,0,0,0.010850694444444444,61.87065972222222,0)" xlink:href="#bv"/></g><g id="ax"><use transform="matrix(0.010850694444444444,0,0,0.010850694444444444,0,0)" xlink:href="#aR"/><use transform="matrix(0.010850694444444444,0,0,0.010850694444444444,13.324652777777777,0)" xlink:href="#be"/></g><g id="ay"><use transform="matrix(0.010850694444444444,0,0,0.010850694444444444,0,0)" xlink:href="#bf"/><use transform="matrix(0.010850694444444444,0,0,0.010850694444444444,12.6953125,0)" xlink:href="#bc"/><use transform="matrix(0.010850694444444444,0,0,0.010850694444444444,18.077256944444443,0)" xlink:href="#bs"/><use transform="matrix(0.010850694444444444,0,0,0.010850694444444444,31.217447916666664,0)" xlink:href="#aV"/><use transform="matrix(0.010850694444444444,0,0,0.010850694444444444,42.94704861111111,0)" xlink:href="#aM"/><use transform="matrix(0.010850694444444444,0,0,0.010850694444444444,50,0)" xlink:href="#aN"/><use transform="matrix(0.010850694444444444,0,0,0.010850694444444444,62.955729166666664,0)" xlink:href="#aS"/><use transform="matrix(0.010850694444444444,0,0,0.010850694444444444,71.32161458333333,0)" xlink:href="#aV"/></g><g id="az"><use transform="matrix(0.010850694444444444,0,0,0.010850694444444444,0,0)" xlink:href="#aX"/><use transform="matrix(0.010850694444444444,0,0,0.010850694444444444,12.055121527777777,0)" xlink:href="#aN"/><use transform="matrix(0.010850694444444444,0,0,0.010850694444444444,25.227864583333332,0)" xlink:href="#aY"/><use transform="matrix(0.010850694444444444,0,0,0.010850694444444444,37.70616319444444,0)" xlink:href="#aS"/><use transform="matrix(0.010850694444444444,0,0,0.010850694444444444,46.07204861111111,0)" xlink:href="#aP"/><use transform="matrix(0.010850694444444444,0,0,0.010850694444444444,55.11067708333333,0)" xlink:href="#bm"/><use transform="matrix(0.010850694444444444,0,0,0.010850694444444444,69.81336805555554,0)" xlink:href="#bn"/><use transform="matrix(0.010850694444444444,0,0,0.010850694444444444,77.91883680555554,0)" xlink:href="#aP"/><use transform="matrix(0.010850694444444444,0,0,0.010850694444444444,86.95746527777777,0)" xlink:href="#aZ"/><use transform="matrix(0.010850694444444444,0,0,0.010850694444444444,100.50998263888889,0)" xlink:href="#bq"/><use transform="matrix(0.010850694444444444,0,0,0.010850694444444444,106.91189236111111,0)" xlink:href="#bk"/><use transform="matrix(0.010850694444444444,0,0,0.010850694444444444,121.2673611111111,0)" xlink:href="#bu"/><use transform="matrix(0.010850694444444444,0,0,0.010850694444444444,134.48350694444446,0)" xlink:href="#bp"/></g><g id="aA"><use transform="matrix(0.010850694444444444,0,0,0.010850694444444444,0,0)" xlink:href="#bv"/><use transform="matrix(0.010850694444444444,0,0,0.010850694444444444,13.509114583333332,0)" xlink:href="#bu"/><use transform="matrix(0.010850694444444444,0,0,0.010850694444444444,26.725260416666664,0)" xlink:href="#bq"/><use transform="matrix(0.010850694444444444,0,0,0.010850694444444444,31.206597222222218,0)" xlink:href="#aP"/><use transform="matrix(0.010850694444444444,0,0,0.010850694444444444,40.24522569444444,0)" xlink:href="#bh"/><use transform="matrix(0.010850694444444444,0,0,0.010850694444444444,53.47222222222222,0)" xlink:href="#bp"/></g><g id="aB"><use transform="matrix(0.010850694444444444,0,0,0.010850694444444444,0,0)" xlink:href="#aP"/><use transform="matrix(0.010850694444444444,0,0,0.010850694444444444,9.038628472222221,0)" xlink:href="#bk"/><use transform="matrix(0.010850694444444444,0,0,0.010850694444444444,22.645399305555554,0)" xlink:href="#bq"/><use transform="matrix(0.010850694444444444,0,0,0.010850694444444444,28.89539930555556,0)" xlink:href="#bu"/><use transform="matrix(0.010850694444444444,0,0,0.010850694444444444,42.67578125,0)" xlink:href="#aP"/><use transform="matrix(0.010850694444444444,0,0,0.010850694444444444,51.71440972222222,0)" xlink:href="#bp"/></g><g id="aC"><use transform="matrix(0.010850694444444444,0,0,0.010850694444444444,0,0)" xlink:href="#bq"/><use transform="matrix(0.010850694444444444,0,0,0.010850694444444444,6.401909722222222,0)" xlink:href="#bq"/><use transform="matrix(0.010850694444444444,0,0,0.010850694444444444,12.803819444444445,0)" xlink:href="#bq"/><use transform="matrix(0.010850694444444444,0,0,0.010850694444444444,19.205729166666668,0)" xlink:href="#bp"/><use transform="matrix(0.010850694444444444,0,0,0.010850694444444444,25.04340277777778,0)" xlink:href="#bt"/><use transform="matrix(0.010850694444444444,0,0,0.010850694444444444,39.0625,0)" xlink:href="#bo"/></g><g id="aD"><use transform="matrix(0.010850694444444444,0,0,0.010850694444444444,0,0)" xlink:href="#aX"/><use transform="matrix(0.010850694444444444,0,0,0.010850694444444444,12.055121527777777,0)" xlink:href="#aN"/><use transform="matrix(0.010850694444444444,0,0,0.010850694444444444,25.227864583333332,0)" xlink:href="#aY"/><use transform="matrix(0.010850694444444444,0,0,0.010850694444444444,37.70616319444444,0)" xlink:href="#aS"/><use transform="matrix(0.010850694444444444,0,0,0.010850694444444444,46.07204861111111,0)" xlink:href="#aZ"/><use transform="matrix(0.010850694444444444,0,0,0.010850694444444444,59.62456597222221,0)" xlink:href="#bm"/><use transform="matrix(0.010850694444444444,0,0,0.010850694444444444,74.32725694444443,0)" xlink:href="#bn"/><use transform="matrix(0.010850694444444444,0,0,0.010850694444444444,82.43272569444443,0)" xlink:href="#bk"/><use transform="matrix(0.010850694444444444,0,0,0.010850694444444444,96.03949652777776,0)" xlink:href="#bq"/><use transform="matrix(0.010850694444444444,0,0,0.010850694444444444,102.12673611111111,0)" xlink:href="#bx"/><use transform="matrix(0.010850694444444444,0,0,0.010850694444444444,113.41145833333333,0)" xlink:href="#bk"/><use transform="matrix(0.010850694444444444,0,0,0.010850694444444444,127.01822916666666,0)" xlink:href="#bp"/></g><g id="aE"><use transform="matrix(0.010850694444444444,0,0,0.010850694444444444,0,0)" xlink:href="#bv"/><use transform="matrix(0.010850694444444444,0,0,0.010850694444444444,12.91232638888889,0)" xlink:href="#bq"/><use transform="matrix(0.010850694444444444,0,0,0.010850694444444444,19.16232638888889,0)" xlink:href="#bu"/><use transform="matrix(0.010850694444444444,0,0,0.010850694444444444,32.942708333333336,0)" xlink:href="#bt"/><use transform="matrix(0.010850694444444444,0,0,0.010850694444444444,46.39756944444444,0)" xlink:href="#bp"/></g><g id="aF"><use transform="matrix(0.010850694444444444,0,0,0.010850694444444444,0,0)" xlink:href="#aZ"/><use transform="matrix(0.010850694444444444,0,0,0.010850694444444444,13.55251736111111,0)" xlink:href="#bq"/><use transform="matrix(0.010850694444444444,0,0,0.010850694444444444,19.954427083333332,0)" xlink:href="#aZ"/><use transform="matrix(0.010850694444444444,0,0,0.010850694444444444,33.50694444444444,0)" xlink:href="#bw"/><use transform="matrix(0.010850694444444444,0,0,0.010850694444444444,46.75564236111111,0)" xlink:href="#bp"/></g><g id="aG"><use transform="matrix(0.010850694444444444,0,0,0.010850694444444444,0,0)" xlink:href="#aX"/><use transform="matrix(0.010850694444444444,0,0,0.010850694444444444,12.055121527777777,0)" xlink:href="#aN"/><use transform="matrix(0.010850694444444444,0,0,0.010850694444444444,25.227864583333332,0)" xlink:href="#aY"/><use transform="matrix(0.010850694444444444,0,0,0.010850694444444444,37.70616319444444,0)" xlink:href="#aS"/><use transform="matrix(0.010850694444444444,0,0,0.010850694444444444,46.07204861111111,0)" xlink:href="#bh"/><use transform="matrix(0.010850694444444444,0,0,0.010850694444444444,59.79817708333333,0)" xlink:href="#bm"/><use transform="matrix(0.010850694444444444,0,0,0.010850694444444444,74.50086805555554,0)" xlink:href="#bn"/><use transform="matrix(0.010850694444444444,0,0,0.010850694444444444,82.60633680555554,0)" xlink:href="#aZ"/><use transform="matrix(0.010850694444444444,0,0,0.010850694444444444,96.15885416666666,0)" xlink:href="#bq"/><use transform="matrix(0.010850694444444444,0,0,0.010850694444444444,101.96397569444444,0)" xlink:href="#bh"/><use transform="matrix(0.010850694444444444,0,0,0.010850694444444444,115.69010416666666,0)" xlink:href="#by"/><use transform="matrix(0.010850694444444444,0,0,0.010850694444444444,129.47048611111111,0)" xlink:href="#bp"/></g><g id="aH"><use transform="matrix(0.010850694444444444,0,0,0.010850694444444444,0,0)" xlink:href="#bh"/><use transform="matrix(0.010850694444444444,0,0,0.010850694444444444,13.726128472222221,0)" xlink:href="#bv"/><use transform="matrix(0.010850694444444444,0,0,0.010850694444444444,26.638454861111104,0)" xlink:href="#bq"/><use transform="matrix(0.010850694444444444,0,0,0.010850694444444444,32.88845486111111,0)" xlink:href="#bu"/><use transform="matrix(0.010850694444444444,0,0,0.010850694444444444,46.66883680555556,0)" xlink:href="#bw"/><use transform="matrix(0.010850694444444444,0,0,0.010850694444444444,59.91753472222221,0)" xlink:href="#bp"/></g><g id="aI"><use transform="matrix(0.010850694444444444,0,0,0.010850694444444444,0,0)" xlink:href="#bv"/><use transform="matrix(0.010850694444444444,0,0,0.010850694444444444,12.91232638888889,0)" xlink:href="#bq"/><use transform="matrix(0.010850694444444444,0,0,0.010850694444444444,17.393663194444443,0)" xlink:href="#aP"/><use transform="matrix(0.010850694444444444,0,0,0.010850694444444444,26.432291666666664,0)" xlink:href="#bw"/><use transform="matrix(0.010850694444444444,0,0,0.010850694444444444,39.68098958333333,0)" xlink:href="#bp"/></g><g id="aJ"><use transform="matrix(0.010850694444444444,0,0,0.010850694444444444,0,0)" xlink:href="#aX"/><use transform="matrix(0.010850694444444444,0,0,0.010850694444444444,12.055121527777777,0)" xlink:href="#aN"/><use transform="matrix(0.010850694444444444,0,0,0.010850694444444444,25.227864583333332,0)" xlink:href="#aY"/><use transform="matrix(0.010850694444444444,0,0,0.010850694444444444,37.70616319444444,0)" xlink:href="#aS"/><use transform="matrix(0.010850694444444444,0,0,0.010850694444444444,46.41927083333333,0)" xlink:href="#aX"/><use transform="matrix(0.010850694444444444,0,0,0.010850694444444444,58.029513888888886,0)" xlink:href="#bm"/><use transform="matrix(0.010850694444444444,0,0,0.010850694444444444,72.73220486111111,0)" xlink:href="#bn"/><use transform="matrix(0.010850694444444444,0,0,0.010850694444444444,80.83767361111111,0)" xlink:href="#bt"/><use transform="matrix(0.010850694444444444,0,0,0.010850694444444444,94.29253472222221,0)" xlink:href="#bq"/><use transform="matrix(0.010850694444444444,0,0,0.010850694444444444,100.54253472222224,0)" xlink:href="#bu"/><use transform="matrix(0.010850694444444444,0,0,0.010850694444444444,114.32291666666666,0)" xlink:href="#bu"/><use transform="matrix(0.010850694444444444,0,0,0.010850694444444444,127.5390625,0)" xlink:href="#bp"/></g><g id="aK"><use transform="matrix(0.010850694444444444,0,0,0.010850694444444444,0,0)" xlink:href="#bx"/><use transform="matrix(0.010850694444444444,0,0,0.010850694444444444,9.798177083333332,0)" xlink:href="#bq"/><use transform="matrix(0.010850694444444444,0,0,0.010850694444444444,15.70095486111111,0)" xlink:href="#bw"/><use transform="matrix(0.010850694444444444,0,0,0.010850694444444444,29.44878472222222,0)" xlink:href="#aZ"/><use transform="matrix(0.010850694444444444,0,0,0.010850694444444444,43.00130208333333,0)" xlink:href="#bp"/></g></defs></g></svg>